<svg width="500" height="500" viewBox="0 0 500 500" fill="none" xmlns="http://www.w3.org/2000/svg">
<rect width="500" height="500" fill="#0C0C0C"/>
<rect x="221.5" y="244.784" width="40" height="40" rx="4" transform="rotate(-45 221.5 244.784)" fill="black"/>
<path d="M234.069 249.15C233.983 249.15 233.913 249.12 233.859 249.06C233.806 249.007 233.763 248.96 233.729 248.92L233.319 248.36C232.959 248.52 232.543 248.6 232.069 248.6C231.496 248.6 231.006 248.503 230.599 248.31C230.199 248.11 229.886 247.807 229.659 247.4C229.439 246.987 229.319 246.47 229.299 245.85C229.293 245.557 229.289 245.277 229.289 245.01C229.289 244.737 229.293 244.453 229.299 244.16C229.319 243.547 229.446 243.037 229.679 242.63C229.913 242.217 230.233 241.91 230.639 241.71C231.053 241.503 231.529 241.4 232.069 241.4C232.616 241.4 233.093 241.503 233.499 241.71C233.913 241.91 234.236 242.217 234.469 242.63C234.703 243.037 234.826 243.547 234.839 244.16C234.853 244.453 234.859 244.737 234.859 245.01C234.859 245.277 234.853 245.557 234.839 245.85C234.806 246.77 234.566 247.453 234.119 247.9L234.779 248.84C234.786 248.847 234.793 248.857 234.799 248.87C234.806 248.89 234.809 248.917 234.809 248.95C234.816 249.003 234.799 249.05 234.759 249.09C234.719 249.13 234.669 249.15 234.609 249.15H234.069ZM232.069 247.75C232.576 247.75 232.993 247.597 233.319 247.29C233.646 246.983 233.823 246.487 233.849 245.8C233.863 245.5 233.869 245.233 233.869 245C233.869 244.76 233.863 244.493 233.849 244.2C233.836 243.74 233.749 243.367 233.589 243.08C233.436 242.793 233.229 242.583 232.969 242.45C232.709 242.317 232.409 242.25 232.069 242.25C231.743 242.25 231.446 242.317 231.179 242.45C230.919 242.583 230.713 242.793 230.559 243.08C230.406 243.367 230.319 243.74 230.299 244.2C230.293 244.493 230.289 244.76 230.289 245C230.289 245.233 230.293 245.5 230.299 245.8C230.326 246.487 230.503 246.983 230.829 247.29C231.156 247.597 231.569 247.75 232.069 247.75ZM238.137 248.6C237.71 248.6 237.347 248.507 237.047 248.32C236.754 248.127 236.53 247.86 236.377 247.52C236.224 247.18 236.147 246.79 236.147 246.35V243.53C236.147 243.463 236.167 243.41 236.207 243.37C236.254 243.323 236.31 243.3 236.377 243.3H236.877C236.944 243.3 236.997 243.323 237.037 243.37C237.084 243.41 237.107 243.463 237.107 243.53V246.3C237.107 247.293 237.54 247.79 238.407 247.79C238.82 247.79 239.15 247.66 239.397 247.4C239.65 247.133 239.777 246.767 239.777 246.3V243.53C239.777 243.463 239.797 243.41 239.837 243.37C239.884 243.323 239.94 243.3 240.007 243.3H240.497C240.57 243.3 240.627 243.323 240.667 243.37C240.707 243.41 240.727 243.463 240.727 243.53V248.27C240.727 248.337 240.707 248.393 240.667 248.44C240.627 248.48 240.57 248.5 240.497 248.5H240.037C239.97 248.5 239.914 248.48 239.867 248.44C239.827 248.393 239.807 248.337 239.807 248.27V247.83C239.627 248.063 239.407 248.25 239.147 248.39C238.894 248.53 238.557 248.6 238.137 248.6ZM244.283 248.6C243.596 248.6 243.049 248.39 242.643 247.97C242.236 247.543 242.013 246.963 241.973 246.23C241.966 246.143 241.963 246.033 241.963 245.9C241.963 245.76 241.966 245.647 241.973 245.56C241.999 245.087 242.109 244.673 242.303 244.32C242.496 243.96 242.759 243.683 243.093 243.49C243.433 243.297 243.829 243.2 244.283 243.2C244.789 243.2 245.213 243.307 245.553 243.52C245.899 243.733 246.163 244.037 246.343 244.43C246.523 244.823 246.613 245.283 246.613 245.81V245.98C246.613 246.053 246.589 246.11 246.543 246.15C246.503 246.19 246.449 246.21 246.383 246.21H242.923C242.923 246.217 242.923 246.23 242.923 246.25C242.923 246.27 242.923 246.287 242.923 246.3C242.936 246.573 242.996 246.83 243.103 247.07C243.209 247.303 243.363 247.493 243.563 247.64C243.763 247.787 244.003 247.86 244.283 247.86C244.523 247.86 244.723 247.823 244.883 247.75C245.043 247.677 245.173 247.597 245.273 247.51C245.373 247.417 245.439 247.347 245.473 247.3C245.533 247.213 245.579 247.163 245.613 247.15C245.646 247.13 245.699 247.12 245.773 247.12H246.253C246.319 247.12 246.373 247.14 246.413 247.18C246.459 247.213 246.479 247.263 246.473 247.33C246.466 247.43 246.413 247.553 246.313 247.7C246.213 247.84 246.069 247.98 245.883 248.12C245.696 248.26 245.469 248.377 245.203 248.47C244.936 248.557 244.629 248.6 244.283 248.6ZM242.923 245.52H245.663V245.49C245.663 245.19 245.606 244.923 245.493 244.69C245.386 244.457 245.229 244.273 245.023 244.14C244.816 244 244.569 243.93 244.283 243.93C243.996 243.93 243.749 244 243.543 244.14C243.343 244.273 243.189 244.457 243.083 244.69C242.976 244.923 242.923 245.19 242.923 245.49V245.52ZM249.608 248.6C249.235 248.6 248.915 248.553 248.648 248.46C248.382 248.367 248.165 248.253 247.998 248.12C247.832 247.987 247.705 247.853 247.618 247.72C247.538 247.587 247.495 247.48 247.488 247.4C247.482 247.327 247.505 247.27 247.558 247.23C247.612 247.19 247.665 247.17 247.718 247.17H248.158C248.198 247.17 248.228 247.177 248.248 247.19C248.275 247.197 248.308 247.223 248.348 247.27C248.435 247.363 248.532 247.457 248.638 247.55C248.745 247.643 248.875 247.72 249.028 247.78C249.188 247.84 249.385 247.87 249.618 247.87C249.958 247.87 250.238 247.807 250.458 247.68C250.678 247.547 250.788 247.353 250.788 247.1C250.788 246.933 250.742 246.8 250.648 246.7C250.562 246.6 250.402 246.51 250.168 246.43C249.942 246.35 249.628 246.267 249.228 246.18C248.828 246.087 248.512 245.973 248.278 245.84C248.045 245.7 247.878 245.537 247.778 245.35C247.678 245.157 247.628 244.94 247.628 244.7C247.628 244.453 247.702 244.217 247.848 243.99C247.995 243.757 248.208 243.567 248.488 243.42C248.775 243.273 249.132 243.2 249.558 243.2C249.905 243.2 250.202 243.243 250.448 243.33C250.695 243.417 250.898 243.527 251.058 243.66C251.218 243.787 251.338 243.913 251.418 244.04C251.498 244.167 251.542 244.273 251.548 244.36C251.555 244.427 251.535 244.483 251.488 244.53C251.442 244.57 251.388 244.59 251.328 244.59H250.908C250.862 244.59 250.822 244.58 250.788 244.56C250.762 244.54 250.735 244.517 250.708 244.49C250.642 244.403 250.562 244.317 250.468 244.23C250.382 244.143 250.265 244.073 250.118 244.02C249.978 243.96 249.792 243.93 249.558 243.93C249.225 243.93 248.975 244 248.808 244.14C248.642 244.28 248.558 244.457 248.558 244.67C248.558 244.797 248.595 244.91 248.668 245.01C248.742 245.11 248.882 245.2 249.088 245.28C249.295 245.36 249.602 245.447 250.008 245.54C250.448 245.627 250.795 245.743 251.048 245.89C251.302 246.037 251.482 246.207 251.588 246.4C251.695 246.593 251.748 246.817 251.748 247.07C251.748 247.35 251.665 247.607 251.498 247.84C251.338 248.073 251.098 248.26 250.778 248.4C250.465 248.533 250.075 248.6 249.608 248.6ZM254.926 248.5C254.553 248.5 254.25 248.43 254.016 248.29C253.783 248.143 253.613 247.94 253.506 247.68C253.4 247.413 253.346 247.1 253.346 246.74V244.1H252.566C252.5 244.1 252.443 244.08 252.396 244.04C252.356 243.993 252.336 243.937 252.336 243.87V243.53C252.336 243.463 252.356 243.41 252.396 243.37C252.443 243.323 252.5 243.3 252.566 243.3H253.346V241.63C253.346 241.563 253.366 241.51 253.406 241.47C253.453 241.423 253.51 241.4 253.576 241.4H254.046C254.113 241.4 254.166 241.423 254.206 241.47C254.253 241.51 254.276 241.563 254.276 241.63V243.3H255.516C255.583 243.3 255.636 243.323 255.676 243.37C255.723 243.41 255.746 243.463 255.746 243.53V243.87C255.746 243.937 255.723 243.993 255.676 244.04C255.636 244.08 255.583 244.1 255.516 244.1H254.276V246.67C254.276 246.983 254.33 247.23 254.436 247.41C254.543 247.59 254.733 247.68 255.006 247.68H255.616C255.683 247.68 255.736 247.703 255.776 247.75C255.823 247.79 255.846 247.843 255.846 247.91V248.27C255.846 248.337 255.823 248.393 255.776 248.44C255.736 248.48 255.683 248.5 255.616 248.5H254.926ZM257.033 248.5C256.966 248.5 256.909 248.48 256.863 248.44C256.823 248.393 256.803 248.337 256.803 248.27V243.53C256.803 243.463 256.823 243.41 256.863 243.37C256.909 243.323 256.966 243.3 257.033 243.3H257.513C257.579 243.3 257.633 243.323 257.673 243.37C257.713 243.41 257.733 243.463 257.733 243.53V248.27C257.733 248.337 257.713 248.393 257.673 248.44C257.633 248.48 257.579 248.5 257.513 248.5H257.033ZM256.953 242.33C256.886 242.33 256.829 242.31 256.783 242.27C256.743 242.223 256.722 242.167 256.722 242.1V241.56C256.722 241.493 256.743 241.44 256.783 241.4C256.829 241.353 256.886 241.33 256.953 241.33H257.583C257.649 241.33 257.703 241.353 257.743 241.4C257.789 241.44 257.813 241.493 257.813 241.56V242.1C257.813 242.167 257.789 242.223 257.743 242.27C257.703 242.31 257.649 242.33 257.583 242.33H256.953ZM261.374 248.6C260.867 248.6 260.444 248.503 260.104 248.31C259.764 248.117 259.504 247.85 259.324 247.51C259.144 247.163 259.044 246.77 259.024 246.33C259.017 246.217 259.014 246.073 259.014 245.9C259.014 245.72 259.017 245.577 259.024 245.47C259.044 245.023 259.144 244.63 259.324 244.29C259.511 243.95 259.774 243.683 260.114 243.49C260.454 243.297 260.874 243.2 261.374 243.2C261.874 243.2 262.294 243.297 262.634 243.49C262.974 243.683 263.234 243.95 263.414 244.29C263.601 244.63 263.704 245.023 263.724 245.47C263.731 245.577 263.734 245.72 263.734 245.9C263.734 246.073 263.731 246.217 263.724 246.33C263.704 246.77 263.604 247.163 263.424 247.51C263.244 247.85 262.984 248.117 262.644 248.31C262.304 248.503 261.881 248.6 261.374 248.6ZM261.374 247.83C261.787 247.83 262.117 247.7 262.364 247.44C262.611 247.173 262.744 246.787 262.764 246.28C262.771 246.18 262.774 246.053 262.774 245.9C262.774 245.747 262.771 245.62 262.764 245.52C262.744 245.013 262.611 244.63 262.364 244.37C262.117 244.103 261.787 243.97 261.374 243.97C260.961 243.97 260.627 244.103 260.374 244.37C260.127 244.63 259.997 245.013 259.984 245.52C259.977 245.62 259.974 245.747 259.974 245.9C259.974 246.053 259.977 246.18 259.984 246.28C259.997 246.787 260.127 247.173 260.374 247.44C260.627 247.7 260.961 247.83 261.374 247.83ZM265.216 248.5C265.149 248.5 265.093 248.48 265.046 248.44C265.006 248.393 264.986 248.337 264.986 248.27V243.53C264.986 243.463 265.006 243.41 265.046 243.37C265.093 243.323 265.149 243.3 265.216 243.3H265.686C265.753 243.3 265.806 243.323 265.846 243.37C265.893 243.41 265.916 243.463 265.916 243.53V243.97C266.089 243.743 266.306 243.56 266.566 243.42C266.833 243.273 267.173 243.2 267.586 243.2C268.019 243.2 268.386 243.297 268.686 243.49C268.993 243.677 269.223 243.94 269.376 244.28C269.529 244.613 269.606 245.003 269.606 245.45V248.27C269.606 248.337 269.586 248.393 269.546 248.44C269.506 248.48 269.453 248.5 269.386 248.5H268.886C268.819 248.5 268.763 248.48 268.716 248.44C268.676 248.393 268.656 248.337 268.656 248.27V245.5C268.656 245.033 268.543 244.67 268.316 244.41C268.089 244.143 267.756 244.01 267.316 244.01C266.903 244.01 266.569 244.143 266.316 244.41C266.069 244.67 265.946 245.033 265.946 245.5V248.27C265.946 248.337 265.923 248.393 265.876 248.44C265.836 248.48 265.783 248.5 265.716 248.5H265.216Z" fill="#72808A"/>
<rect x="220" y="44.5" width="60" height="36" rx="4" fill="black"/>
<path d="M231.74 65.5C231.666 65.5 231.61 65.48 231.57 65.44C231.53 65.3933 231.51 65.3367 231.51 65.27V58.74C231.51 58.6667 231.53 58.61 231.57 58.57C231.61 58.5233 231.666 58.5 231.74 58.5H234.28C234.773 58.5 235.2 58.58 235.56 58.74C235.926 58.9 236.21 59.14 236.41 59.46C236.61 59.7733 236.71 60.1667 236.71 60.64C236.71 61.1133 236.61 61.5067 236.41 61.82C236.21 62.1333 235.926 62.37 235.56 62.53C235.2 62.69 234.773 62.77 234.28 62.77H232.51V65.27C232.51 65.3367 232.486 65.3933 232.44 65.44C232.4 65.48 232.343 65.5 232.27 65.5H231.74ZM232.5 61.93H234.23C234.723 61.93 235.093 61.82 235.34 61.6C235.586 61.38 235.71 61.06 235.71 60.64C235.71 60.2267 235.59 59.9067 235.35 59.68C235.11 59.4533 234.736 59.34 234.23 59.34H232.5V61.93ZM238.026 65.5C237.959 65.5 237.902 65.48 237.856 65.44C237.816 65.3933 237.796 65.3367 237.796 65.27V60.54C237.796 60.4733 237.816 60.4167 237.856 60.37C237.902 60.3233 237.959 60.3 238.026 60.3H238.486C238.552 60.3 238.609 60.3233 238.656 60.37C238.702 60.4167 238.726 60.4733 238.726 60.54V60.98C238.859 60.7533 239.042 60.5833 239.276 60.47C239.509 60.3567 239.789 60.3 240.116 60.3H240.516C240.582 60.3 240.636 60.3233 240.676 60.37C240.716 60.41 240.736 60.4633 240.736 60.53V60.94C240.736 61.0067 240.716 61.06 240.676 61.1C240.636 61.14 240.582 61.16 240.516 61.16H239.916C239.556 61.16 239.272 61.2667 239.066 61.48C238.859 61.6867 238.756 61.97 238.756 62.33V65.27C238.756 65.3367 238.732 65.3933 238.686 65.44C238.639 65.48 238.582 65.5 238.516 65.5H238.026ZM243.627 65.6C243.12 65.6 242.697 65.5033 242.357 65.31C242.017 65.1167 241.757 64.85 241.577 64.51C241.397 64.1633 241.297 63.77 241.277 63.33C241.27 63.2167 241.267 63.0733 241.267 62.9C241.267 62.72 241.27 62.5767 241.277 62.47C241.297 62.0233 241.397 61.63 241.577 61.29C241.764 60.95 242.027 60.6833 242.367 60.49C242.707 60.2967 243.127 60.2 243.627 60.2C244.127 60.2 244.547 60.2967 244.887 60.49C245.227 60.6833 245.487 60.95 245.667 61.29C245.854 61.63 245.957 62.0233 245.977 62.47C245.984 62.5767 245.987 62.72 245.987 62.9C245.987 63.0733 245.984 63.2167 245.977 63.33C245.957 63.77 245.857 64.1633 245.677 64.51C245.497 64.85 245.237 65.1167 244.897 65.31C244.557 65.5033 244.134 65.6 243.627 65.6ZM243.627 64.83C244.04 64.83 244.37 64.7 244.617 64.44C244.864 64.1733 244.997 63.7867 245.017 63.28C245.024 63.18 245.027 63.0533 245.027 62.9C245.027 62.7467 245.024 62.62 245.017 62.52C244.997 62.0133 244.864 61.63 244.617 61.37C244.37 61.1033 244.04 60.97 243.627 60.97C243.214 60.97 242.88 61.1033 242.627 61.37C242.38 61.63 242.25 62.0133 242.237 62.52C242.23 62.62 242.227 62.7467 242.227 62.9C242.227 63.0533 242.23 63.18 242.237 63.28C242.25 63.7867 242.38 64.1733 242.627 64.44C242.88 64.7 243.214 64.83 243.627 64.83ZM249.809 65.6C249.409 65.6 249.076 65.53 248.809 65.39C248.542 65.2433 248.329 65.0633 248.169 64.85V65.27C248.169 65.3367 248.146 65.3933 248.099 65.44C248.059 65.48 248.006 65.5 247.939 65.5H247.479C247.412 65.5 247.356 65.48 247.309 65.44C247.269 65.3933 247.249 65.3367 247.249 65.27V58.63C247.249 58.5633 247.269 58.51 247.309 58.47C247.356 58.4233 247.412 58.4 247.479 58.4H247.959C248.032 58.4 248.089 58.4233 248.129 58.47C248.169 58.51 248.189 58.5633 248.189 58.63V60.93C248.356 60.7233 248.569 60.55 248.829 60.41C249.096 60.27 249.422 60.2 249.809 60.2C250.182 60.2 250.499 60.2667 250.759 60.4C251.026 60.5267 251.242 60.7033 251.409 60.93C251.582 61.1567 251.712 61.4133 251.799 61.7C251.886 61.9867 251.932 62.2867 251.939 62.6C251.946 62.7067 251.949 62.8067 251.949 62.9C251.949 62.9933 251.946 63.0933 251.939 63.2C251.932 63.52 251.886 63.8233 251.799 64.11C251.712 64.3967 251.582 64.6533 251.409 64.88C251.242 65.1 251.026 65.2767 250.759 65.41C250.499 65.5367 250.182 65.6 249.809 65.6ZM249.599 64.79C249.946 64.79 250.216 64.7167 250.409 64.57C250.609 64.4167 250.752 64.22 250.839 63.98C250.926 63.7333 250.976 63.47 250.989 63.19C250.996 62.9967 250.996 62.8033 250.989 62.61C250.976 62.33 250.926 62.07 250.839 61.83C250.752 61.5833 250.609 61.3867 250.409 61.24C250.216 61.0867 249.946 61.01 249.599 61.01C249.286 61.01 249.026 61.0833 248.819 61.23C248.612 61.3767 248.456 61.5633 248.349 61.79C248.249 62.0167 248.196 62.2467 248.189 62.48C248.182 62.5867 248.179 62.7167 248.179 62.87C248.179 63.0167 248.182 63.1433 248.189 63.25C248.202 63.4967 248.256 63.74 248.349 63.98C248.449 64.2133 248.599 64.4067 248.799 64.56C249.006 64.7133 249.272 64.79 249.599 64.79ZM253.426 65.5C253.36 65.5 253.303 65.48 253.256 65.44C253.216 65.3933 253.196 65.3367 253.196 65.27V58.63C253.196 58.5633 253.216 58.51 253.256 58.47C253.303 58.4233 253.36 58.4 253.426 58.4H253.896C253.97 58.4 254.026 58.4233 254.066 58.47C254.106 58.51 254.126 58.5633 254.126 58.63V65.27C254.126 65.3367 254.106 65.3933 254.066 65.44C254.026 65.48 253.97 65.5 253.896 65.5H253.426ZM257.688 65.6C257.001 65.6 256.455 65.39 256.048 64.97C255.641 64.5433 255.418 63.9633 255.378 63.23C255.371 63.1433 255.368 63.0333 255.368 62.9C255.368 62.76 255.371 62.6467 255.378 62.56C255.405 62.0867 255.515 61.6733 255.708 61.32C255.901 60.96 256.165 60.6833 256.498 60.49C256.838 60.2967 257.235 60.2 257.688 60.2C258.195 60.2 258.618 60.3067 258.958 60.52C259.305 60.7333 259.568 61.0367 259.748 61.43C259.928 61.8233 260.018 62.2833 260.018 62.81V62.98C260.018 63.0533 259.995 63.11 259.948 63.15C259.908 63.19 259.855 63.21 259.788 63.21H256.328C256.328 63.2167 256.328 63.23 256.328 63.25C256.328 63.27 256.328 63.2867 256.328 63.3C256.341 63.5733 256.401 63.83 256.508 64.07C256.615 64.3033 256.768 64.4933 256.968 64.64C257.168 64.7867 257.408 64.86 257.688 64.86C257.928 64.86 258.128 64.8233 258.288 64.75C258.448 64.6767 258.578 64.5967 258.678 64.51C258.778 64.4167 258.845 64.3467 258.878 64.3C258.938 64.2133 258.985 64.1633 259.018 64.15C259.051 64.13 259.105 64.12 259.178 64.12H259.658C259.725 64.12 259.778 64.14 259.818 64.18C259.865 64.2133 259.885 64.2633 259.878 64.33C259.871 64.43 259.818 64.5533 259.718 64.7C259.618 64.84 259.475 64.98 259.288 65.12C259.101 65.26 258.875 65.3767 258.608 65.47C258.341 65.5567 258.035 65.6 257.688 65.6ZM256.328 62.52H259.068V62.49C259.068 62.19 259.011 61.9233 258.898 61.69C258.791 61.4567 258.635 61.2733 258.428 61.14C258.221 61 257.975 60.93 257.688 60.93C257.401 60.93 257.155 61 256.948 61.14C256.748 61.2733 256.595 61.4567 256.488 61.69C256.381 61.9233 256.328 62.19 256.328 62.49V62.52ZM261.444 65.5C261.377 65.5 261.32 65.48 261.274 65.44C261.234 65.3933 261.214 65.3367 261.214 65.27V60.53C261.214 60.4633 261.234 60.41 261.274 60.37C261.32 60.3233 261.377 60.3 261.444 60.3H261.894C261.96 60.3 262.014 60.3233 262.054 60.37C262.1 60.41 262.124 60.4633 262.124 60.53V60.88C262.277 60.6733 262.47 60.51 262.704 60.39C262.937 60.2633 263.217 60.2 263.544 60.2C264.297 60.1933 264.83 60.5 265.144 61.12C265.297 60.84 265.52 60.6167 265.814 60.45C266.107 60.2833 266.44 60.2 266.814 60.2C267.16 60.2 267.474 60.28 267.754 60.44C268.04 60.6 268.264 60.8433 268.424 61.17C268.59 61.49 268.674 61.8933 268.674 62.38V65.27C268.674 65.3367 268.65 65.3933 268.604 65.44C268.564 65.48 268.51 65.5 268.444 65.5H267.974C267.907 65.5 267.85 65.48 267.804 65.44C267.764 65.3933 267.744 65.3367 267.744 65.27V62.47C267.744 62.0967 267.69 61.8033 267.584 61.59C267.477 61.3767 267.334 61.2267 267.154 61.14C266.974 61.0533 266.777 61.01 266.564 61.01C266.39 61.01 266.214 61.0533 266.034 61.14C265.854 61.2267 265.704 61.3767 265.584 61.59C265.47 61.8033 265.414 62.0967 265.414 62.47V65.27C265.414 65.3367 265.39 65.3933 265.344 65.44C265.304 65.48 265.25 65.5 265.184 65.5H264.714C264.647 65.5 264.59 65.48 264.544 65.44C264.504 65.3933 264.484 65.3367 264.484 65.27V62.47C264.484 62.0967 264.427 61.8033 264.314 61.59C264.2 61.3767 264.054 61.2267 263.874 61.14C263.694 61.0533 263.504 61.01 263.304 61.01C263.13 61.01 262.954 61.0533 262.774 61.14C262.594 61.2267 262.444 61.3767 262.324 61.59C262.21 61.8033 262.154 62.0933 262.154 62.46V65.27C262.154 65.3367 262.13 65.3933 262.084 65.44C262.044 65.48 261.99 65.5 261.924 65.5H261.444Z" fill="#72808A"/>
<rect x="220" y="130.5" width="60" height="36" rx="4" fill="black"/>
<path d="M235.244 151.5C235.19 151.5 235.144 151.48 235.104 151.44C235.064 151.4 235.044 151.353 235.044 151.3C235.044 151.267 235.047 151.23 235.054 151.19L237.534 144.72C237.56 144.653 237.597 144.6 237.644 144.56C237.69 144.52 237.76 144.5 237.854 144.5H238.534C238.62 144.5 238.687 144.52 238.734 144.56C238.787 144.6 238.827 144.653 238.854 144.72L241.324 151.19C241.337 151.23 241.344 151.267 241.344 151.3C241.344 151.353 241.324 151.4 241.284 151.44C241.244 151.48 241.197 151.5 241.144 151.5H240.634C240.554 151.5 240.494 151.48 240.454 151.44C240.42 151.4 240.397 151.363 240.384 151.33L239.834 149.91H236.554L236.004 151.33C235.997 151.363 235.974 151.4 235.934 151.44C235.894 151.48 235.834 151.5 235.754 151.5H235.244ZM236.844 149.05H239.544L238.194 145.5L236.844 149.05ZM244.324 151.6C243.851 151.6 243.441 151.51 243.094 151.33C242.754 151.143 242.491 150.88 242.304 150.54C242.118 150.193 242.018 149.78 242.004 149.3C241.998 149.2 241.994 149.067 241.994 148.9C241.994 148.733 241.998 148.6 242.004 148.5C242.018 148.02 242.118 147.61 242.304 147.27C242.491 146.923 242.754 146.66 243.094 146.48C243.441 146.293 243.851 146.2 244.324 146.2C244.711 146.2 245.041 146.253 245.314 146.36C245.594 146.467 245.824 146.603 246.004 146.77C246.184 146.937 246.318 147.117 246.404 147.31C246.498 147.503 246.548 147.687 246.554 147.86C246.561 147.927 246.541 147.98 246.494 148.02C246.448 148.06 246.391 148.08 246.324 148.08H245.844C245.778 148.08 245.728 148.067 245.694 148.04C245.661 148.007 245.628 147.953 245.594 147.88C245.474 147.553 245.311 147.323 245.104 147.19C244.898 147.057 244.641 146.99 244.334 146.99C243.934 146.99 243.608 147.113 243.354 147.36C243.108 147.607 242.974 148.003 242.954 148.55C242.948 148.79 242.948 149.023 242.954 149.25C242.974 149.803 243.108 150.203 243.354 150.45C243.608 150.69 243.934 150.81 244.334 150.81C244.641 150.81 244.898 150.743 245.104 150.61C245.311 150.477 245.474 150.247 245.594 149.92C245.628 149.847 245.661 149.797 245.694 149.77C245.728 149.737 245.778 149.72 245.844 149.72H246.324C246.391 149.72 246.448 149.74 246.494 149.78C246.541 149.82 246.561 149.873 246.554 149.94C246.548 150.08 246.518 150.223 246.464 150.37C246.411 150.517 246.324 150.667 246.204 150.82C246.091 150.967 245.948 151.1 245.774 151.22C245.601 151.333 245.391 151.427 245.144 151.5C244.904 151.567 244.631 151.6 244.324 151.6ZM249.772 151.5C249.399 151.5 249.095 151.43 248.862 151.29C248.629 151.143 248.459 150.94 248.352 150.68C248.245 150.413 248.192 150.1 248.192 149.74V147.1H247.412C247.345 147.1 247.289 147.08 247.242 147.04C247.202 146.993 247.182 146.937 247.182 146.87V146.53C247.182 146.463 247.202 146.41 247.242 146.37C247.289 146.323 247.345 146.3 247.412 146.3H248.192V144.63C248.192 144.563 248.212 144.51 248.252 144.47C248.299 144.423 248.355 144.4 248.422 144.4H248.892C248.959 144.4 249.012 144.423 249.052 144.47C249.099 144.51 249.122 144.563 249.122 144.63V146.3H250.362C250.429 146.3 250.482 146.323 250.522 146.37C250.569 146.41 250.592 146.463 250.592 146.53V146.87C250.592 146.937 250.569 146.993 250.522 147.04C250.482 147.08 250.429 147.1 250.362 147.1H249.122V149.67C249.122 149.983 249.175 150.23 249.282 150.41C249.389 150.59 249.579 150.68 249.852 150.68H250.462C250.529 150.68 250.582 150.703 250.622 150.75C250.669 150.79 250.692 150.843 250.692 150.91V151.27C250.692 151.337 250.669 151.393 250.622 151.44C250.582 151.48 250.529 151.5 250.462 151.5H249.772ZM251.878 151.5C251.812 151.5 251.755 151.48 251.708 151.44C251.668 151.393 251.648 151.337 251.648 151.27V146.53C251.648 146.463 251.668 146.41 251.708 146.37C251.755 146.323 251.812 146.3 251.878 146.3H252.358C252.425 146.3 252.478 146.323 252.518 146.37C252.558 146.41 252.578 146.463 252.578 146.53V151.27C252.578 151.337 252.558 151.393 252.518 151.44C252.478 151.48 252.425 151.5 252.358 151.5H251.878ZM251.798 145.33C251.732 145.33 251.675 145.31 251.628 145.27C251.588 145.223 251.568 145.167 251.568 145.1V144.56C251.568 144.493 251.588 144.44 251.628 144.4C251.675 144.353 251.732 144.33 251.798 144.33H252.428C252.495 144.33 252.548 144.353 252.588 144.4C252.635 144.44 252.658 144.493 252.658 144.56V145.1C252.658 145.167 252.635 145.223 252.588 145.27C252.548 145.31 252.495 145.33 252.428 145.33H251.798ZM256.22 151.6C255.713 151.6 255.29 151.503 254.95 151.31C254.61 151.117 254.35 150.85 254.17 150.51C253.99 150.163 253.89 149.77 253.87 149.33C253.863 149.217 253.86 149.073 253.86 148.9C253.86 148.72 253.863 148.577 253.87 148.47C253.89 148.023 253.99 147.63 254.17 147.29C254.356 146.95 254.62 146.683 254.96 146.49C255.3 146.297 255.72 146.2 256.22 146.2C256.72 146.2 257.14 146.297 257.48 146.49C257.82 146.683 258.08 146.95 258.26 147.29C258.446 147.63 258.55 148.023 258.57 148.47C258.576 148.577 258.58 148.72 258.58 148.9C258.58 149.073 258.576 149.217 258.57 149.33C258.55 149.77 258.45 150.163 258.27 150.51C258.09 150.85 257.83 151.117 257.49 151.31C257.15 151.503 256.726 151.6 256.22 151.6ZM256.22 150.83C256.633 150.83 256.963 150.7 257.21 150.44C257.456 150.173 257.59 149.787 257.61 149.28C257.616 149.18 257.62 149.053 257.62 148.9C257.62 148.747 257.616 148.62 257.61 148.52C257.59 148.013 257.456 147.63 257.21 147.37C256.963 147.103 256.633 146.97 256.22 146.97C255.806 146.97 255.473 147.103 255.22 147.37C254.973 147.63 254.843 148.013 254.83 148.52C254.823 148.62 254.82 148.747 254.82 148.9C254.82 149.053 254.823 149.18 254.83 149.28C254.843 149.787 254.973 150.173 255.22 150.44C255.473 150.7 255.806 150.83 256.22 150.83ZM260.062 151.5C259.995 151.5 259.938 151.48 259.892 151.44C259.852 151.393 259.832 151.337 259.832 151.27V146.53C259.832 146.463 259.852 146.41 259.892 146.37C259.938 146.323 259.995 146.3 260.062 146.3H260.532C260.598 146.3 260.652 146.323 260.692 146.37C260.738 146.41 260.762 146.463 260.762 146.53V146.97C260.935 146.743 261.152 146.56 261.412 146.42C261.678 146.273 262.018 146.2 262.432 146.2C262.865 146.2 263.232 146.297 263.532 146.49C263.838 146.677 264.068 146.94 264.222 147.28C264.375 147.613 264.452 148.003 264.452 148.45V151.27C264.452 151.337 264.432 151.393 264.392 151.44C264.352 151.48 264.298 151.5 264.232 151.5H263.732C263.665 151.5 263.608 151.48 263.562 151.44C263.522 151.393 263.502 151.337 263.502 151.27V148.5C263.502 148.033 263.388 147.67 263.162 147.41C262.935 147.143 262.602 147.01 262.162 147.01C261.748 147.01 261.415 147.143 261.162 147.41C260.915 147.67 260.792 148.033 260.792 148.5V151.27C260.792 151.337 260.768 151.393 260.722 151.44C260.682 151.48 260.628 151.5 260.562 151.5H260.062Z" fill="#72808A"/>
<rect x="328.5" y="227" width="70" height="36" rx="18" fill="black"/>
<path d="M335.538 248C335.472 248 335.421 247.982 335.385 247.946C335.349 247.904 335.331 247.853 335.331 247.793V241.907C335.331 241.847 335.349 241.799 335.385 241.763C335.421 241.721 335.472 241.7 335.538 241.7H336.015C336.075 241.7 336.123 241.721 336.159 241.763C336.201 241.799 336.222 241.847 336.222 241.907V247.793C336.222 247.853 336.201 247.904 336.159 247.946C336.123 247.982 336.075 248 336.015 248H335.538ZM338.35 248C338.29 248 338.239 247.982 338.197 247.946C338.161 247.904 338.143 247.853 338.143 247.793V244.04H337.378C337.318 244.04 337.267 244.022 337.225 243.986C337.189 243.944 337.171 243.893 337.171 243.833V243.527C337.171 243.467 337.189 243.419 337.225 243.383C337.267 243.341 337.318 243.32 337.378 243.32H338.143V242.87C338.143 242.564 338.194 242.297 338.296 242.069C338.398 241.835 338.56 241.655 338.782 241.529C339.01 241.403 339.313 241.34 339.691 241.34H340.231C340.291 241.34 340.339 241.361 340.375 241.403C340.411 241.439 340.429 241.487 340.429 241.547V241.853C340.429 241.913 340.411 241.964 340.375 242.006C340.339 242.042 340.291 242.06 340.231 242.06H339.709C339.427 242.06 339.235 242.135 339.133 242.285C339.031 242.429 338.98 242.639 338.98 242.915V243.32H340.141C340.201 243.32 340.249 243.341 340.285 243.383C340.321 243.419 340.339 243.467 340.339 243.527V243.833C340.339 243.893 340.321 243.944 340.285 243.986C340.249 244.022 340.201 244.04 340.141 244.04H338.98V247.793C338.98 247.853 338.959 247.904 338.917 247.946C338.881 247.982 338.833 248 338.773 248H338.35ZM343.466 248C343.4 248 343.349 247.982 343.313 247.946C343.277 247.904 343.259 247.853 343.259 247.793V241.916C343.259 241.85 343.277 241.799 343.313 241.763C343.349 241.721 343.4 241.7 343.466 241.7H343.88C343.952 241.7 344.006 241.718 344.042 241.754C344.078 241.784 344.099 241.808 344.105 241.826L347.093 246.416V241.916C347.093 241.85 347.111 241.799 347.147 241.763C347.183 241.721 347.234 241.7 347.3 241.7H347.732C347.798 241.7 347.849 241.721 347.885 241.763C347.927 241.799 347.948 241.85 347.948 241.916V247.784C347.948 247.844 347.927 247.895 347.885 247.937C347.849 247.979 347.801 248 347.741 248H347.309C347.243 248 347.192 247.982 347.156 247.946C347.126 247.91 347.105 247.886 347.093 247.874L344.114 243.329V247.793C344.114 247.853 344.093 247.904 344.051 247.946C344.015 247.982 343.964 248 343.898 248H343.466ZM351.308 248.09C350.852 248.09 350.471 248.003 350.165 247.829C349.859 247.655 349.625 247.415 349.463 247.109C349.301 246.797 349.211 246.443 349.193 246.047C349.187 245.945 349.184 245.816 349.184 245.66C349.184 245.498 349.187 245.369 349.193 245.273C349.211 244.871 349.301 244.517 349.463 244.211C349.631 243.905 349.868 243.665 350.174 243.491C350.48 243.317 350.858 243.23 351.308 243.23C351.758 243.23 352.136 243.317 352.442 243.491C352.748 243.665 352.982 243.905 353.144 244.211C353.312 244.517 353.405 244.871 353.423 245.273C353.429 245.369 353.432 245.498 353.432 245.66C353.432 245.816 353.429 245.945 353.423 246.047C353.405 246.443 353.315 246.797 353.153 247.109C352.991 247.415 352.757 247.655 352.451 247.829C352.145 248.003 351.764 248.09 351.308 248.09ZM351.308 247.397C351.68 247.397 351.977 247.28 352.199 247.046C352.421 246.806 352.541 246.458 352.559 246.002C352.565 245.912 352.568 245.798 352.568 245.66C352.568 245.522 352.565 245.408 352.559 245.318C352.541 244.862 352.421 244.517 352.199 244.283C351.977 244.043 351.68 243.923 351.308 243.923C350.936 243.923 350.636 244.043 350.408 244.283C350.186 244.517 350.069 244.862 350.057 245.318C350.051 245.408 350.048 245.522 350.048 245.66C350.048 245.798 350.051 245.912 350.057 246.002C350.069 246.458 350.186 246.806 350.408 247.046C350.636 247.28 350.936 247.397 351.308 247.397ZM354.408 248.675C354.36 248.675 354.321 248.657 354.291 248.621C354.267 248.585 354.258 248.54 354.264 248.486L354.471 247.199C354.483 247.127 354.507 247.067 354.543 247.019C354.585 246.965 354.645 246.938 354.723 246.938H355.326C355.368 246.938 355.401 246.953 355.425 246.983C355.455 247.013 355.47 247.049 355.47 247.091C355.47 247.139 355.458 247.187 355.434 247.235L354.966 248.468C354.942 248.528 354.909 248.576 354.867 248.612C354.831 248.654 354.777 248.675 354.705 248.675H354.408ZM358.375 248C358.327 248 358.285 247.982 358.249 247.946C358.213 247.91 358.195 247.868 358.195 247.82C358.195 247.79 358.198 247.757 358.204 247.721L360.436 241.898C360.46 241.838 360.493 241.79 360.535 241.754C360.577 241.718 360.64 241.7 360.724 241.7H361.336C361.414 241.7 361.474 241.718 361.516 241.754C361.564 241.79 361.6 241.838 361.624 241.898L363.847 247.721C363.859 247.757 363.865 247.79 363.865 247.82C363.865 247.868 363.847 247.91 363.811 247.946C363.775 247.982 363.733 248 363.685 248H363.226C363.154 248 363.1 247.982 363.064 247.946C363.034 247.91 363.013 247.877 363.001 247.847L362.506 246.569H359.554L359.059 247.847C359.053 247.877 359.032 247.91 358.996 247.946C358.96 247.982 358.906 248 358.834 248H358.375ZM359.815 245.795H362.245L361.03 242.6L359.815 245.795ZM366.548 248.09C366.122 248.09 365.753 248.009 365.441 247.847C365.135 247.679 364.898 247.442 364.73 247.136C364.562 246.824 364.472 246.452 364.46 246.02C364.454 245.93 364.451 245.81 364.451 245.66C364.451 245.51 364.454 245.39 364.46 245.3C364.472 244.868 364.562 244.499 364.73 244.193C364.898 243.881 365.135 243.644 365.441 243.482C365.753 243.314 366.122 243.23 366.548 243.23C366.896 243.23 367.193 243.278 367.439 243.374C367.691 243.47 367.898 243.593 368.06 243.743C368.222 243.893 368.342 244.055 368.42 244.229C368.504 244.403 368.549 244.568 368.555 244.724C368.561 244.784 368.543 244.832 368.501 244.868C368.459 244.904 368.408 244.922 368.348 244.922H367.916C367.856 244.922 367.811 244.91 367.781 244.886C367.751 244.856 367.721 244.808 367.691 244.742C367.583 244.448 367.436 244.241 367.25 244.121C367.064 244.001 366.833 243.941 366.557 243.941C366.197 243.941 365.903 244.052 365.675 244.274C365.453 244.496 365.333 244.853 365.315 245.345C365.309 245.561 365.309 245.771 365.315 245.975C365.333 246.473 365.453 246.833 365.675 247.055C365.903 247.271 366.197 247.379 366.557 247.379C366.833 247.379 367.064 247.319 367.25 247.199C367.436 247.079 367.583 246.872 367.691 246.578C367.721 246.512 367.751 246.467 367.781 246.443C367.811 246.413 367.856 246.398 367.916 246.398H368.348C368.408 246.398 368.459 246.416 368.501 246.452C368.543 246.488 368.561 246.536 368.555 246.596C368.549 246.722 368.522 246.851 368.474 246.983C368.426 247.115 368.348 247.25 368.24 247.388C368.138 247.52 368.009 247.64 367.853 247.748C367.697 247.85 367.508 247.934 367.286 248C367.07 248.06 366.824 248.09 366.548 248.09ZM371.451 248C371.115 248 370.842 247.937 370.632 247.811C370.422 247.679 370.269 247.496 370.173 247.262C370.077 247.022 370.029 246.74 370.029 246.416V244.04H369.327C369.267 244.04 369.216 244.022 369.174 243.986C369.138 243.944 369.12 243.893 369.12 243.833V243.527C369.12 243.467 369.138 243.419 369.174 243.383C369.216 243.341 369.267 243.32 369.327 243.32H370.029V241.817C370.029 241.757 370.047 241.709 370.083 241.673C370.125 241.631 370.176 241.61 370.236 241.61H370.659C370.719 241.61 370.767 241.631 370.803 241.673C370.845 241.709 370.866 241.757 370.866 241.817V243.32H371.982C372.042 243.32 372.09 243.341 372.126 243.383C372.168 243.419 372.189 243.467 372.189 243.527V243.833C372.189 243.893 372.168 243.944 372.126 243.986C372.09 244.022 372.042 244.04 371.982 244.04H370.866V246.353C370.866 246.635 370.914 246.857 371.01 247.019C371.106 247.181 371.277 247.262 371.523 247.262H372.072C372.132 247.262 372.18 247.283 372.216 247.325C372.258 247.361 372.279 247.409 372.279 247.469V247.793C372.279 247.853 372.258 247.904 372.216 247.946C372.18 247.982 372.132 248 372.072 248H371.451ZM373.346 248C373.286 248 373.235 247.982 373.193 247.946C373.157 247.904 373.139 247.853 373.139 247.793V243.527C373.139 243.467 373.157 243.419 373.193 243.383C373.235 243.341 373.286 243.32 373.346 243.32H373.778C373.838 243.32 373.886 243.341 373.922 243.383C373.958 243.419 373.976 243.467 373.976 243.527V247.793C373.976 247.853 373.958 247.904 373.922 247.946C373.886 247.982 373.838 248 373.778 248H373.346ZM373.274 242.447C373.214 242.447 373.163 242.429 373.121 242.393C373.085 242.351 373.067 242.3 373.067 242.24V241.754C373.067 241.694 373.085 241.646 373.121 241.61C373.163 241.568 373.214 241.547 373.274 241.547H373.841C373.901 241.547 373.949 241.568 373.985 241.61C374.027 241.646 374.048 241.694 374.048 241.754V242.24C374.048 242.3 374.027 242.351 373.985 242.393C373.949 242.429 373.901 242.447 373.841 242.447H373.274ZM377.254 248.09C376.798 248.09 376.417 248.003 376.111 247.829C375.805 247.655 375.571 247.415 375.409 247.109C375.247 246.797 375.157 246.443 375.139 246.047C375.133 245.945 375.13 245.816 375.13 245.66C375.13 245.498 375.133 245.369 375.139 245.273C375.157 244.871 375.247 244.517 375.409 244.211C375.577 243.905 375.814 243.665 376.12 243.491C376.426 243.317 376.804 243.23 377.254 243.23C377.704 243.23 378.082 243.317 378.388 243.491C378.694 243.665 378.928 243.905 379.09 244.211C379.258 244.517 379.351 244.871 379.369 245.273C379.375 245.369 379.378 245.498 379.378 245.66C379.378 245.816 379.375 245.945 379.369 246.047C379.351 246.443 379.261 246.797 379.099 247.109C378.937 247.415 378.703 247.655 378.397 247.829C378.091 248.003 377.71 248.09 377.254 248.09ZM377.254 247.397C377.626 247.397 377.923 247.28 378.145 247.046C378.367 246.806 378.487 246.458 378.505 246.002C378.511 245.912 378.514 245.798 378.514 245.66C378.514 245.522 378.511 245.408 378.505 245.318C378.487 244.862 378.367 244.517 378.145 244.283C377.923 244.043 377.626 243.923 377.254 243.923C376.882 243.923 376.582 244.043 376.354 244.283C376.132 244.517 376.015 244.862 376.003 245.318C375.997 245.408 375.994 245.522 375.994 245.66C375.994 245.798 375.997 245.912 376.003 246.002C376.015 246.458 376.132 246.806 376.354 247.046C376.582 247.28 376.882 247.397 377.254 247.397ZM380.712 248C380.652 248 380.601 247.982 380.559 247.946C380.523 247.904 380.505 247.853 380.505 247.793V243.527C380.505 243.467 380.523 243.419 380.559 243.383C380.601 243.341 380.652 243.32 380.712 243.32H381.135C381.195 243.32 381.243 243.341 381.279 243.383C381.321 243.419 381.342 243.467 381.342 243.527V243.923C381.498 243.719 381.693 243.554 381.927 243.428C382.167 243.296 382.473 243.23 382.845 243.23C383.235 243.23 383.565 243.317 383.835 243.491C384.111 243.659 384.318 243.896 384.456 244.202C384.594 244.502 384.663 244.853 384.663 245.255V247.793C384.663 247.853 384.645 247.904 384.609 247.946C384.573 247.982 384.525 248 384.465 248H384.015C383.955 248 383.904 247.982 383.862 247.946C383.826 247.904 383.808 247.853 383.808 247.793V245.3C383.808 244.88 383.706 244.553 383.502 244.319C383.298 244.079 382.998 243.959 382.602 243.959C382.23 243.959 381.93 244.079 381.702 244.319C381.48 244.553 381.369 244.88 381.369 245.3V247.793C381.369 247.853 381.348 247.904 381.306 247.946C381.27 247.982 381.222 248 381.162 248H380.712ZM388.151 248C388.091 248 388.04 247.982 387.998 247.946C387.962 247.904 387.944 247.853 387.944 247.793V247.505C387.944 247.451 387.959 247.391 387.989 247.325C388.019 247.259 388.079 247.187 388.169 247.109L390.077 245.201C390.383 244.943 390.623 244.724 390.797 244.544C390.977 244.358 391.103 244.181 391.175 244.013C391.253 243.845 391.292 243.671 391.292 243.491C391.292 243.149 391.196 242.879 391.004 242.681C390.812 242.477 390.527 242.375 390.149 242.375C389.909 242.375 389.702 242.426 389.528 242.528C389.354 242.624 389.216 242.759 389.114 242.933C389.018 243.101 388.955 243.293 388.925 243.509C388.913 243.587 388.88 243.641 388.826 243.671C388.778 243.701 388.733 243.716 388.691 243.716H388.223C388.169 243.716 388.124 243.701 388.088 243.671C388.052 243.635 388.034 243.593 388.034 243.545C388.04 243.317 388.088 243.089 388.178 242.861C388.268 242.627 388.4 242.417 388.574 242.231C388.754 242.045 388.973 241.895 389.231 241.781C389.495 241.661 389.801 241.601 390.149 241.601C390.623 241.601 391.01 241.688 391.31 241.862C391.616 242.03 391.841 242.255 391.985 242.537C392.129 242.819 392.201 243.128 392.201 243.464C392.201 243.728 392.156 243.971 392.066 244.193C391.976 244.409 391.844 244.622 391.67 244.832C391.502 245.036 391.292 245.246 391.04 245.462L389.312 247.217H392.12C392.186 247.217 392.237 247.235 392.273 247.271C392.315 247.307 392.336 247.358 392.336 247.424V247.793C392.336 247.853 392.315 247.904 392.273 247.946C392.237 247.982 392.186 248 392.12 248H388.151Z" fill="#72808A"/>
<rect x="101.5" y="227" width="70" height="36" rx="18" fill="black"/>
<path d="M107.204 248C107.138 248 107.087 247.982 107.051 247.946C107.015 247.904 106.997 247.853 106.997 247.793V241.907C106.997 241.847 107.015 241.799 107.051 241.763C107.087 241.721 107.138 241.7 107.204 241.7H107.681C107.741 241.7 107.789 241.721 107.825 241.763C107.867 241.799 107.888 241.847 107.888 241.907V247.793C107.888 247.853 107.867 247.904 107.825 247.946C107.789 247.982 107.741 248 107.681 248H107.204ZM110.015 248C109.955 248 109.904 247.982 109.862 247.946C109.826 247.904 109.808 247.853 109.808 247.793V244.04H109.043C108.983 244.04 108.932 244.022 108.89 243.986C108.854 243.944 108.836 243.893 108.836 243.833V243.527C108.836 243.467 108.854 243.419 108.89 243.383C108.932 243.341 108.983 243.32 109.043 243.32H109.808V242.87C109.808 242.564 109.859 242.297 109.961 242.069C110.063 241.835 110.225 241.655 110.447 241.529C110.675 241.403 110.978 241.34 111.356 241.34H111.896C111.956 241.34 112.004 241.361 112.04 241.403C112.076 241.439 112.094 241.487 112.094 241.547V241.853C112.094 241.913 112.076 241.964 112.04 242.006C112.004 242.042 111.956 242.06 111.896 242.06H111.374C111.092 242.06 110.9 242.135 110.798 242.285C110.696 242.429 110.645 242.639 110.645 242.915V243.32H111.806C111.866 243.32 111.914 243.341 111.95 243.383C111.986 243.419 112.004 243.467 112.004 243.527V243.833C112.004 243.893 111.986 243.944 111.95 243.986C111.914 244.022 111.866 244.04 111.806 244.04H110.645V247.793C110.645 247.853 110.624 247.904 110.582 247.946C110.546 247.982 110.498 248 110.438 248H110.015ZM116.551 248C116.491 248 116.44 247.982 116.398 247.946C116.362 247.904 116.344 247.853 116.344 247.793V245.669L114.175 241.997C114.169 241.979 114.163 241.961 114.157 241.943C114.151 241.925 114.148 241.904 114.148 241.88C114.148 241.832 114.166 241.79 114.202 241.754C114.238 241.718 114.28 241.7 114.328 241.7H114.796C114.85 241.7 114.898 241.715 114.94 241.745C114.982 241.769 115.012 241.805 115.03 241.853L116.785 244.769L118.54 241.853C118.57 241.805 118.603 241.769 118.639 241.745C118.681 241.715 118.729 241.7 118.783 241.7H119.242C119.296 241.7 119.341 241.718 119.377 241.754C119.413 241.79 119.431 241.832 119.431 241.88C119.431 241.904 119.428 241.925 119.422 241.943C119.416 241.961 119.407 241.979 119.395 241.997L117.235 245.669V247.793C117.235 247.853 117.214 247.904 117.172 247.946C117.136 247.982 117.085 248 117.019 248H116.551ZM121.478 248.09C120.86 248.09 120.368 247.901 120.002 247.523C119.636 247.139 119.435 246.617 119.399 245.957C119.393 245.879 119.39 245.78 119.39 245.66C119.39 245.534 119.393 245.432 119.399 245.354C119.423 244.928 119.522 244.556 119.696 244.238C119.87 243.914 120.107 243.665 120.407 243.491C120.713 243.317 121.07 243.23 121.478 243.23C121.934 243.23 122.315 243.326 122.621 243.518C122.933 243.71 123.17 243.983 123.332 244.337C123.494 244.691 123.575 245.105 123.575 245.579V245.732C123.575 245.798 123.554 245.849 123.512 245.885C123.476 245.921 123.428 245.939 123.368 245.939H120.254C120.254 245.945 120.254 245.957 120.254 245.975C120.254 245.993 120.254 246.008 120.254 246.02C120.266 246.266 120.32 246.497 120.416 246.713C120.512 246.923 120.65 247.094 120.83 247.226C121.01 247.358 121.226 247.424 121.478 247.424C121.694 247.424 121.874 247.391 122.018 247.325C122.162 247.259 122.279 247.187 122.369 247.109C122.459 247.025 122.519 246.962 122.549 246.92C122.603 246.842 122.645 246.797 122.675 246.785C122.705 246.767 122.753 246.758 122.819 246.758H123.251C123.311 246.758 123.359 246.776 123.395 246.812C123.437 246.842 123.455 246.887 123.449 246.947C123.443 247.037 123.395 247.148 123.305 247.28C123.215 247.406 123.086 247.532 122.918 247.658C122.75 247.784 122.546 247.889 122.306 247.973C122.066 248.051 121.79 248.09 121.478 248.09ZM120.254 245.318H122.72V245.291C122.72 245.021 122.669 244.781 122.567 244.571C122.471 244.361 122.33 244.196 122.144 244.076C121.958 243.95 121.736 243.887 121.478 243.887C121.22 243.887 120.998 243.95 120.812 244.076C120.632 244.196 120.494 244.361 120.398 244.571C120.302 244.781 120.254 245.021 120.254 245.291V245.318ZM126.271 248.09C125.935 248.09 125.647 248.048 125.407 247.964C125.167 247.88 124.972 247.778 124.822 247.658C124.672 247.538 124.558 247.418 124.48 247.298C124.408 247.178 124.369 247.082 124.363 247.01C124.357 246.944 124.378 246.893 124.426 246.857C124.474 246.821 124.522 246.803 124.57 246.803H124.966C125.002 246.803 125.029 246.809 125.047 246.821C125.071 246.827 125.101 246.851 125.137 246.893C125.215 246.977 125.302 247.061 125.398 247.145C125.494 247.229 125.611 247.298 125.749 247.352C125.893 247.406 126.07 247.433 126.28 247.433C126.586 247.433 126.838 247.376 127.036 247.262C127.234 247.142 127.333 246.968 127.333 246.74C127.333 246.59 127.291 246.47 127.207 246.38C127.129 246.29 126.985 246.209 126.775 246.137C126.571 246.065 126.289 245.99 125.929 245.912C125.569 245.828 125.284 245.726 125.074 245.606C124.864 245.48 124.714 245.333 124.624 245.165C124.534 244.991 124.489 244.796 124.489 244.58C124.489 244.358 124.555 244.145 124.687 243.941C124.819 243.731 125.011 243.56 125.263 243.428C125.521 243.296 125.842 243.23 126.226 243.23C126.538 243.23 126.805 243.269 127.027 243.347C127.249 243.425 127.432 243.524 127.576 243.644C127.72 243.758 127.828 243.872 127.9 243.986C127.972 244.1 128.011 244.196 128.017 244.274C128.023 244.334 128.005 244.385 127.963 244.427C127.921 244.463 127.873 244.481 127.819 244.481H127.441C127.399 244.481 127.363 244.472 127.333 244.454C127.309 244.436 127.285 244.415 127.261 244.391C127.201 244.313 127.129 244.235 127.045 244.157C126.967 244.079 126.862 244.016 126.73 243.968C126.604 243.914 126.436 243.887 126.226 243.887C125.926 243.887 125.701 243.95 125.551 244.076C125.401 244.202 125.326 244.361 125.326 244.553C125.326 244.667 125.359 244.769 125.425 244.859C125.491 244.949 125.617 245.03 125.803 245.102C125.989 245.174 126.265 245.252 126.631 245.336C127.027 245.414 127.339 245.519 127.567 245.651C127.795 245.783 127.957 245.936 128.053 246.11C128.149 246.284 128.197 246.485 128.197 246.713C128.197 246.965 128.122 247.196 127.972 247.406C127.828 247.616 127.612 247.784 127.324 247.91C127.042 248.03 126.691 248.09 126.271 248.09ZM129.176 248.675C129.128 248.675 129.089 248.657 129.059 248.621C129.035 248.585 129.026 248.54 129.032 248.486L129.239 247.199C129.251 247.127 129.275 247.067 129.311 247.019C129.353 246.965 129.413 246.938 129.491 246.938H130.094C130.136 246.938 130.169 246.953 130.193 246.983C130.223 247.013 130.238 247.049 130.238 247.091C130.238 247.139 130.226 247.187 130.202 247.235L129.734 248.468C129.71 248.528 129.677 248.576 129.635 248.612C129.599 248.654 129.545 248.675 129.473 248.675H129.176ZM133.143 248C133.095 248 133.053 247.982 133.017 247.946C132.981 247.91 132.963 247.868 132.963 247.82C132.963 247.79 132.966 247.757 132.972 247.721L135.204 241.898C135.228 241.838 135.261 241.79 135.303 241.754C135.345 241.718 135.408 241.7 135.492 241.7H136.104C136.182 241.7 136.242 241.718 136.284 241.754C136.332 241.79 136.368 241.838 136.392 241.898L138.615 247.721C138.627 247.757 138.633 247.79 138.633 247.82C138.633 247.868 138.615 247.91 138.579 247.946C138.543 247.982 138.501 248 138.453 248H137.994C137.922 248 137.868 247.982 137.832 247.946C137.802 247.91 137.781 247.877 137.769 247.847L137.274 246.569H134.322L133.827 247.847C133.821 247.877 133.8 247.91 133.764 247.946C133.728 247.982 133.674 248 133.602 248H133.143ZM134.583 245.795H137.013L135.798 242.6L134.583 245.795ZM141.315 248.09C140.889 248.09 140.52 248.009 140.208 247.847C139.902 247.679 139.665 247.442 139.497 247.136C139.329 246.824 139.239 246.452 139.227 246.02C139.221 245.93 139.218 245.81 139.218 245.66C139.218 245.51 139.221 245.39 139.227 245.3C139.239 244.868 139.329 244.499 139.497 244.193C139.665 243.881 139.902 243.644 140.208 243.482C140.52 243.314 140.889 243.23 141.315 243.23C141.663 243.23 141.96 243.278 142.206 243.374C142.458 243.47 142.665 243.593 142.827 243.743C142.989 243.893 143.109 244.055 143.187 244.229C143.271 244.403 143.316 244.568 143.322 244.724C143.328 244.784 143.31 244.832 143.268 244.868C143.226 244.904 143.175 244.922 143.115 244.922H142.683C142.623 244.922 142.578 244.91 142.548 244.886C142.518 244.856 142.488 244.808 142.458 244.742C142.35 244.448 142.203 244.241 142.017 244.121C141.831 244.001 141.6 243.941 141.324 243.941C140.964 243.941 140.67 244.052 140.442 244.274C140.22 244.496 140.1 244.853 140.082 245.345C140.076 245.561 140.076 245.771 140.082 245.975C140.1 246.473 140.22 246.833 140.442 247.055C140.67 247.271 140.964 247.379 141.324 247.379C141.6 247.379 141.831 247.319 142.017 247.199C142.203 247.079 142.35 246.872 142.458 246.578C142.488 246.512 142.518 246.467 142.548 246.443C142.578 246.413 142.623 246.398 142.683 246.398H143.115C143.175 246.398 143.226 246.416 143.268 246.452C143.31 246.488 143.328 246.536 143.322 246.596C143.316 246.722 143.289 246.851 143.241 246.983C143.193 247.115 143.115 247.25 143.007 247.388C142.905 247.52 142.776 247.64 142.62 247.748C142.464 247.85 142.275 247.934 142.053 248C141.837 248.06 141.591 248.09 141.315 248.09ZM146.218 248C145.882 248 145.609 247.937 145.399 247.811C145.189 247.679 145.036 247.496 144.94 247.262C144.844 247.022 144.796 246.74 144.796 246.416V244.04H144.094C144.034 244.04 143.983 244.022 143.941 243.986C143.905 243.944 143.887 243.893 143.887 243.833V243.527C143.887 243.467 143.905 243.419 143.941 243.383C143.983 243.341 144.034 243.32 144.094 243.32H144.796V241.817C144.796 241.757 144.814 241.709 144.85 241.673C144.892 241.631 144.943 241.61 145.003 241.61H145.426C145.486 241.61 145.534 241.631 145.57 241.673C145.612 241.709 145.633 241.757 145.633 241.817V243.32H146.749C146.809 243.32 146.857 243.341 146.893 243.383C146.935 243.419 146.956 243.467 146.956 243.527V243.833C146.956 243.893 146.935 243.944 146.893 243.986C146.857 244.022 146.809 244.04 146.749 244.04H145.633V246.353C145.633 246.635 145.681 246.857 145.777 247.019C145.873 247.181 146.044 247.262 146.29 247.262H146.839C146.899 247.262 146.947 247.283 146.983 247.325C147.025 247.361 147.046 247.409 147.046 247.469V247.793C147.046 247.853 147.025 247.904 146.983 247.946C146.947 247.982 146.899 248 146.839 248H146.218ZM148.114 248C148.054 248 148.003 247.982 147.961 247.946C147.925 247.904 147.907 247.853 147.907 247.793V243.527C147.907 243.467 147.925 243.419 147.961 243.383C148.003 243.341 148.054 243.32 148.114 243.32H148.546C148.606 243.32 148.654 243.341 148.69 243.383C148.726 243.419 148.744 243.467 148.744 243.527V247.793C148.744 247.853 148.726 247.904 148.69 247.946C148.654 247.982 148.606 248 148.546 248H148.114ZM148.042 242.447C147.982 242.447 147.931 242.429 147.889 242.393C147.853 242.351 147.835 242.3 147.835 242.24V241.754C147.835 241.694 147.853 241.646 147.889 241.61C147.931 241.568 147.982 241.547 148.042 241.547H148.609C148.669 241.547 148.717 241.568 148.753 241.61C148.795 241.646 148.816 241.694 148.816 241.754V242.24C148.816 242.3 148.795 242.351 148.753 242.393C148.717 242.429 148.669 242.447 148.609 242.447H148.042ZM152.021 248.09C151.565 248.09 151.184 248.003 150.878 247.829C150.572 247.655 150.338 247.415 150.176 247.109C150.014 246.797 149.924 246.443 149.906 246.047C149.9 245.945 149.897 245.816 149.897 245.66C149.897 245.498 149.9 245.369 149.906 245.273C149.924 244.871 150.014 244.517 150.176 244.211C150.344 243.905 150.581 243.665 150.887 243.491C151.193 243.317 151.571 243.23 152.021 243.23C152.471 243.23 152.849 243.317 153.155 243.491C153.461 243.665 153.695 243.905 153.857 244.211C154.025 244.517 154.118 244.871 154.136 245.273C154.142 245.369 154.145 245.498 154.145 245.66C154.145 245.816 154.142 245.945 154.136 246.047C154.118 246.443 154.028 246.797 153.866 247.109C153.704 247.415 153.47 247.655 153.164 247.829C152.858 248.003 152.477 248.09 152.021 248.09ZM152.021 247.397C152.393 247.397 152.69 247.28 152.912 247.046C153.134 246.806 153.254 246.458 153.272 246.002C153.278 245.912 153.281 245.798 153.281 245.66C153.281 245.522 153.278 245.408 153.272 245.318C153.254 244.862 153.134 244.517 152.912 244.283C152.69 244.043 152.393 243.923 152.021 243.923C151.649 243.923 151.349 244.043 151.121 244.283C150.899 244.517 150.782 244.862 150.77 245.318C150.764 245.408 150.761 245.522 150.761 245.66C150.761 245.798 150.764 245.912 150.77 246.002C150.782 246.458 150.899 246.806 151.121 247.046C151.349 247.28 151.649 247.397 152.021 247.397ZM155.479 248C155.419 248 155.368 247.982 155.326 247.946C155.29 247.904 155.272 247.853 155.272 247.793V243.527C155.272 243.467 155.29 243.419 155.326 243.383C155.368 243.341 155.419 243.32 155.479 243.32H155.902C155.962 243.32 156.01 243.341 156.046 243.383C156.088 243.419 156.109 243.467 156.109 243.527V243.923C156.265 243.719 156.46 243.554 156.694 243.428C156.934 243.296 157.24 243.23 157.612 243.23C158.002 243.23 158.332 243.317 158.602 243.491C158.878 243.659 159.085 243.896 159.223 244.202C159.361 244.502 159.43 244.853 159.43 245.255V247.793C159.43 247.853 159.412 247.904 159.376 247.946C159.34 247.982 159.292 248 159.232 248H158.782C158.722 248 158.671 247.982 158.629 247.946C158.593 247.904 158.575 247.853 158.575 247.793V245.3C158.575 244.88 158.473 244.553 158.269 244.319C158.065 244.079 157.765 243.959 157.369 243.959C156.997 243.959 156.697 244.079 156.469 244.319C156.247 244.553 156.136 244.88 156.136 245.3V247.793C156.136 247.853 156.115 247.904 156.073 247.946C156.037 247.982 155.989 248 155.929 248H155.479ZM164.754 248C164.694 248 164.643 247.982 164.601 247.946C164.565 247.904 164.547 247.853 164.547 247.793V242.753L163.053 243.905C163.005 243.941 162.954 243.956 162.9 243.95C162.846 243.944 162.801 243.917 162.765 243.869L162.531 243.572C162.495 243.518 162.48 243.464 162.486 243.41C162.498 243.356 162.528 243.311 162.576 243.275L164.538 241.763C164.58 241.733 164.619 241.715 164.655 241.709C164.691 241.703 164.73 241.7 164.772 241.7H165.231C165.291 241.7 165.339 241.721 165.375 241.763C165.411 241.799 165.429 241.847 165.429 241.907V247.793C165.429 247.853 165.411 247.904 165.375 247.946C165.339 247.982 165.291 248 165.231 248H164.754Z" fill="#72808A"/>
<path fill-rule="evenodd" clip-rule="evenodd" d="M110.661 315C111.376 313.763 112.696 313 114.125 313H156.868C158.301 313 159.624 313.766 160.337 315.009L168.359 328.982C169.066 330.214 169.067 331.728 168.362 332.96L160.336 346.986C159.624 348.232 158.299 349 156.864 349H114.142C112.704 349 111.377 348.228 110.665 346.978L102.634 332.863C101.932 331.629 101.936 330.115 102.646 328.885L110.661 315Z" fill="black"/>
<path d="M116.802 334C116.728 334 116.672 333.98 116.632 333.94C116.592 333.893 116.572 333.837 116.572 333.77V327.24C116.572 327.167 116.592 327.11 116.632 327.07C116.672 327.023 116.728 327 116.802 327H119.242C119.995 327 120.592 327.177 121.032 327.53C121.472 327.883 121.692 328.407 121.692 329.1C121.692 329.613 121.562 330.033 121.302 330.36C121.048 330.68 120.702 330.903 120.262 331.03L121.802 333.69C121.822 333.73 121.832 333.767 121.832 333.8C121.832 333.853 121.808 333.9 121.762 333.94C121.722 333.98 121.675 334 121.622 334H121.142C121.028 334 120.945 333.97 120.892 333.91C120.838 333.85 120.792 333.79 120.752 333.73L119.302 331.19H117.552V333.77C117.552 333.837 117.528 333.893 117.482 333.94C117.442 333.98 117.385 334 117.312 334H116.802ZM117.552 330.34H119.202C119.702 330.34 120.075 330.237 120.322 330.03C120.568 329.817 120.692 329.503 120.692 329.09C120.692 328.683 120.568 328.373 120.322 328.16C120.082 327.947 119.708 327.84 119.202 327.84H117.552V330.34ZM125.006 334.1C124.319 334.1 123.772 333.89 123.366 333.47C122.959 333.043 122.736 332.463 122.696 331.73C122.689 331.643 122.686 331.533 122.686 331.4C122.686 331.26 122.689 331.147 122.696 331.06C122.722 330.587 122.832 330.173 123.026 329.82C123.219 329.46 123.482 329.183 123.816 328.99C124.156 328.797 124.552 328.7 125.006 328.7C125.512 328.7 125.936 328.807 126.276 329.02C126.622 329.233 126.886 329.537 127.066 329.93C127.246 330.323 127.336 330.783 127.336 331.31V331.48C127.336 331.553 127.312 331.61 127.266 331.65C127.226 331.69 127.172 331.71 127.106 331.71H123.646C123.646 331.717 123.646 331.73 123.646 331.75C123.646 331.77 123.646 331.787 123.646 331.8C123.659 332.073 123.719 332.33 123.826 332.57C123.932 332.803 124.086 332.993 124.286 333.14C124.486 333.287 124.726 333.36 125.006 333.36C125.246 333.36 125.446 333.323 125.606 333.25C125.766 333.177 125.896 333.097 125.996 333.01C126.096 332.917 126.162 332.847 126.196 332.8C126.256 332.713 126.302 332.663 126.336 332.65C126.369 332.63 126.422 332.62 126.496 332.62H126.976C127.042 332.62 127.096 332.64 127.136 332.68C127.182 332.713 127.202 332.763 127.196 332.83C127.189 332.93 127.136 333.053 127.036 333.2C126.936 333.34 126.792 333.48 126.606 333.62C126.419 333.76 126.192 333.877 125.926 333.97C125.659 334.057 125.352 334.1 125.006 334.1ZM123.646 331.02H126.386V330.99C126.386 330.69 126.329 330.423 126.216 330.19C126.109 329.957 125.952 329.773 125.746 329.64C125.539 329.5 125.292 329.43 125.006 329.43C124.719 329.43 124.472 329.5 124.266 329.64C124.066 329.773 123.912 329.957 123.806 330.19C123.699 330.423 123.646 330.69 123.646 330.99V331.02ZM130.332 334.1C129.958 334.1 129.638 334.053 129.372 333.96C129.105 333.867 128.888 333.753 128.722 333.62C128.555 333.487 128.428 333.353 128.342 333.22C128.262 333.087 128.218 332.98 128.212 332.9C128.205 332.827 128.228 332.77 128.282 332.73C128.335 332.69 128.388 332.67 128.442 332.67H128.882C128.922 332.67 128.952 332.677 128.972 332.69C128.998 332.697 129.032 332.723 129.072 332.77C129.158 332.863 129.255 332.957 129.362 333.05C129.468 333.143 129.598 333.22 129.752 333.28C129.912 333.34 130.108 333.37 130.342 333.37C130.682 333.37 130.962 333.307 131.182 333.18C131.402 333.047 131.512 332.853 131.512 332.6C131.512 332.433 131.465 332.3 131.372 332.2C131.285 332.1 131.125 332.01 130.892 331.93C130.665 331.85 130.352 331.767 129.952 331.68C129.552 331.587 129.235 331.473 129.002 331.34C128.768 331.2 128.602 331.037 128.502 330.85C128.402 330.657 128.352 330.44 128.352 330.2C128.352 329.953 128.425 329.717 128.572 329.49C128.718 329.257 128.932 329.067 129.212 328.92C129.498 328.773 129.855 328.7 130.282 328.7C130.628 328.7 130.925 328.743 131.172 328.83C131.418 328.917 131.622 329.027 131.782 329.16C131.942 329.287 132.062 329.413 132.142 329.54C132.222 329.667 132.265 329.773 132.272 329.86C132.278 329.927 132.258 329.983 132.212 330.03C132.165 330.07 132.112 330.09 132.052 330.09H131.632C131.585 330.09 131.545 330.08 131.512 330.06C131.485 330.04 131.458 330.017 131.432 329.99C131.365 329.903 131.285 329.817 131.192 329.73C131.105 329.643 130.988 329.573 130.842 329.52C130.702 329.46 130.515 329.43 130.282 329.43C129.948 329.43 129.698 329.5 129.532 329.64C129.365 329.78 129.282 329.957 129.282 330.17C129.282 330.297 129.318 330.41 129.392 330.51C129.465 330.61 129.605 330.7 129.812 330.78C130.018 330.86 130.325 330.947 130.732 331.04C131.172 331.127 131.518 331.243 131.772 331.39C132.025 331.537 132.205 331.707 132.312 331.9C132.418 332.093 132.472 332.317 132.472 332.57C132.472 332.85 132.388 333.107 132.222 333.34C132.062 333.573 131.822 333.76 131.502 333.9C131.188 334.033 130.798 334.1 130.332 334.1ZM135.569 334.1C135.142 334.1 134.779 334.007 134.479 333.82C134.186 333.627 133.962 333.36 133.809 333.02C133.656 332.68 133.579 332.29 133.579 331.85V329.03C133.579 328.963 133.599 328.91 133.639 328.87C133.686 328.823 133.742 328.8 133.809 328.8H134.309C134.376 328.8 134.429 328.823 134.469 328.87C134.516 328.91 134.539 328.963 134.539 329.03V331.8C134.539 332.793 134.972 333.29 135.839 333.29C136.252 333.29 136.582 333.16 136.829 332.9C137.082 332.633 137.209 332.267 137.209 331.8V329.03C137.209 328.963 137.229 328.91 137.269 328.87C137.316 328.823 137.372 328.8 137.439 328.8H137.929C138.002 328.8 138.059 328.823 138.099 328.87C138.139 328.91 138.159 328.963 138.159 329.03V333.77C138.159 333.837 138.139 333.893 138.099 333.94C138.059 333.98 138.002 334 137.929 334H137.469C137.402 334 137.346 333.98 137.299 333.94C137.259 333.893 137.239 333.837 137.239 333.77V333.33C137.059 333.563 136.839 333.75 136.579 333.89C136.326 334.03 135.989 334.1 135.569 334.1ZM139.885 334C139.818 334 139.761 333.98 139.715 333.94C139.675 333.893 139.655 333.837 139.655 333.77V327.13C139.655 327.063 139.675 327.01 139.715 326.97C139.761 326.923 139.818 326.9 139.885 326.9H140.355C140.428 326.9 140.485 326.923 140.525 326.97C140.565 327.01 140.585 327.063 140.585 327.13V333.77C140.585 333.837 140.565 333.893 140.525 333.94C140.485 333.98 140.428 334 140.355 334H139.885ZM144.106 334C143.733 334 143.43 333.93 143.196 333.79C142.963 333.643 142.793 333.44 142.686 333.18C142.58 332.913 142.526 332.6 142.526 332.24V329.6H141.746C141.68 329.6 141.623 329.58 141.576 329.54C141.536 329.493 141.516 329.437 141.516 329.37V329.03C141.516 328.963 141.536 328.91 141.576 328.87C141.623 328.823 141.68 328.8 141.746 328.8H142.526V327.13C142.526 327.063 142.546 327.01 142.586 326.97C142.633 326.923 142.69 326.9 142.756 326.9H143.226C143.293 326.9 143.346 326.923 143.386 326.97C143.433 327.01 143.456 327.063 143.456 327.13V328.8H144.696C144.763 328.8 144.816 328.823 144.856 328.87C144.903 328.91 144.926 328.963 144.926 329.03V329.37C144.926 329.437 144.903 329.493 144.856 329.54C144.816 329.58 144.763 329.6 144.696 329.6H143.456V332.17C143.456 332.483 143.51 332.73 143.616 332.91C143.723 333.09 143.913 333.18 144.186 333.18H144.796C144.863 333.18 144.916 333.203 144.956 333.25C145.003 333.29 145.026 333.343 145.026 333.41V333.77C145.026 333.837 145.003 333.893 144.956 333.94C144.916 333.98 144.863 334 144.796 334H144.106ZM149.149 334C149.083 334 149.026 333.98 148.979 333.94C148.939 333.893 148.919 333.837 148.919 333.77V333.45C148.919 333.39 148.936 333.323 148.969 333.25C149.003 333.177 149.069 333.097 149.169 333.01L151.289 330.89C151.629 330.603 151.896 330.36 152.089 330.16C152.289 329.953 152.429 329.757 152.509 329.57C152.596 329.383 152.639 329.19 152.639 328.99C152.639 328.61 152.533 328.31 152.319 328.09C152.106 327.863 151.789 327.75 151.369 327.75C151.103 327.75 150.873 327.807 150.679 327.92C150.486 328.027 150.333 328.177 150.219 328.37C150.113 328.557 150.043 328.77 150.009 329.01C149.996 329.097 149.959 329.157 149.899 329.19C149.846 329.223 149.796 329.24 149.749 329.24H149.229C149.169 329.24 149.119 329.223 149.079 329.19C149.039 329.15 149.019 329.103 149.019 329.05C149.026 328.797 149.079 328.543 149.179 328.29C149.279 328.03 149.426 327.797 149.619 327.59C149.819 327.383 150.063 327.217 150.349 327.09C150.643 326.957 150.983 326.89 151.369 326.89C151.896 326.89 152.326 326.987 152.659 327.18C152.999 327.367 153.249 327.617 153.409 327.93C153.569 328.243 153.649 328.587 153.649 328.96C153.649 329.253 153.599 329.523 153.499 329.77C153.399 330.01 153.253 330.247 153.059 330.48C152.873 330.707 152.639 330.94 152.359 331.18L150.439 333.13H153.559C153.633 333.13 153.689 333.15 153.729 333.19C153.776 333.23 153.799 333.287 153.799 333.36V333.77C153.799 333.837 153.776 333.893 153.729 333.94C153.689 333.98 153.633 334 153.559 334H149.149Z" fill="#72808A"/>
<path fill-rule="evenodd" clip-rule="evenodd" d="M338.661 315C339.376 313.763 340.696 313 342.125 313H384.868C386.301 313 387.624 313.766 388.337 315.009L396.359 328.982C397.066 330.214 397.067 331.728 396.362 332.96L388.336 346.986C387.624 348.232 386.299 349 384.864 349H342.142C340.704 349 339.377 348.228 338.665 346.978L330.634 332.863C329.932 331.629 329.936 330.115 330.646 328.885L338.661 315Z" fill="black"/>
<path d="M345.965 334C345.892 334 345.835 333.98 345.795 333.94C345.755 333.893 345.735 333.837 345.735 333.77V327.24C345.735 327.167 345.755 327.11 345.795 327.07C345.835 327.023 345.892 327 345.965 327H348.405C349.159 327 349.755 327.177 350.195 327.53C350.635 327.883 350.855 328.407 350.855 329.1C350.855 329.613 350.725 330.033 350.465 330.36C350.212 330.68 349.865 330.903 349.425 331.03L350.965 333.69C350.985 333.73 350.995 333.767 350.995 333.8C350.995 333.853 350.972 333.9 350.925 333.94C350.885 333.98 350.839 334 350.785 334H350.305C350.192 334 350.109 333.97 350.055 333.91C350.002 333.85 349.955 333.79 349.915 333.73L348.465 331.19H346.715V333.77C346.715 333.837 346.692 333.893 346.645 333.94C346.605 333.98 346.549 334 346.475 334H345.965ZM346.715 330.34H348.365C348.865 330.34 349.239 330.237 349.485 330.03C349.732 329.817 349.855 329.503 349.855 329.09C349.855 328.683 349.732 328.373 349.485 328.16C349.245 327.947 348.872 327.84 348.365 327.84H346.715V330.34ZM354.169 334.1C353.483 334.1 352.936 333.89 352.529 333.47C352.123 333.043 351.899 332.463 351.859 331.73C351.853 331.643 351.849 331.533 351.849 331.4C351.849 331.26 351.853 331.147 351.859 331.06C351.886 330.587 351.996 330.173 352.189 329.82C352.383 329.46 352.646 329.183 352.979 328.99C353.319 328.797 353.716 328.7 354.169 328.7C354.676 328.7 355.099 328.807 355.439 329.02C355.786 329.233 356.049 329.537 356.229 329.93C356.409 330.323 356.499 330.783 356.499 331.31V331.48C356.499 331.553 356.476 331.61 356.429 331.65C356.389 331.69 356.336 331.71 356.269 331.71H352.809C352.809 331.717 352.809 331.73 352.809 331.75C352.809 331.77 352.809 331.787 352.809 331.8C352.823 332.073 352.883 332.33 352.989 332.57C353.096 332.803 353.249 332.993 353.449 333.14C353.649 333.287 353.889 333.36 354.169 333.36C354.409 333.36 354.609 333.323 354.769 333.25C354.929 333.177 355.059 333.097 355.159 333.01C355.259 332.917 355.326 332.847 355.359 332.8C355.419 332.713 355.466 332.663 355.499 332.65C355.533 332.63 355.586 332.62 355.659 332.62H356.139C356.206 332.62 356.259 332.64 356.299 332.68C356.346 332.713 356.366 332.763 356.359 332.83C356.353 332.93 356.299 333.053 356.199 333.2C356.099 333.34 355.956 333.48 355.769 333.62C355.583 333.76 355.356 333.877 355.089 333.97C354.823 334.057 354.516 334.1 354.169 334.1ZM352.809 331.02H355.549V330.99C355.549 330.69 355.493 330.423 355.379 330.19C355.273 329.957 355.116 329.773 354.909 329.64C354.703 329.5 354.456 329.43 354.169 329.43C353.883 329.43 353.636 329.5 353.429 329.64C353.229 329.773 353.076 329.957 352.969 330.19C352.863 330.423 352.809 330.69 352.809 330.99V331.02ZM359.495 334.1C359.122 334.1 358.802 334.053 358.535 333.96C358.268 333.867 358.052 333.753 357.885 333.62C357.718 333.487 357.592 333.353 357.505 333.22C357.425 333.087 357.382 332.98 357.375 332.9C357.368 332.827 357.392 332.77 357.445 332.73C357.498 332.69 357.552 332.67 357.605 332.67H358.045C358.085 332.67 358.115 332.677 358.135 332.69C358.162 332.697 358.195 332.723 358.235 332.77C358.322 332.863 358.418 332.957 358.525 333.05C358.632 333.143 358.762 333.22 358.915 333.28C359.075 333.34 359.272 333.37 359.505 333.37C359.845 333.37 360.125 333.307 360.345 333.18C360.565 333.047 360.675 332.853 360.675 332.6C360.675 332.433 360.628 332.3 360.535 332.2C360.448 332.1 360.288 332.01 360.055 331.93C359.828 331.85 359.515 331.767 359.115 331.68C358.715 331.587 358.398 331.473 358.165 331.34C357.932 331.2 357.765 331.037 357.665 330.85C357.565 330.657 357.515 330.44 357.515 330.2C357.515 329.953 357.588 329.717 357.735 329.49C357.882 329.257 358.095 329.067 358.375 328.92C358.662 328.773 359.018 328.7 359.445 328.7C359.792 328.7 360.088 328.743 360.335 328.83C360.582 328.917 360.785 329.027 360.945 329.16C361.105 329.287 361.225 329.413 361.305 329.54C361.385 329.667 361.428 329.773 361.435 329.86C361.442 329.927 361.422 329.983 361.375 330.03C361.328 330.07 361.275 330.09 361.215 330.09H360.795C360.748 330.09 360.708 330.08 360.675 330.06C360.648 330.04 360.622 330.017 360.595 329.99C360.528 329.903 360.448 329.817 360.355 329.73C360.268 329.643 360.152 329.573 360.005 329.52C359.865 329.46 359.678 329.43 359.445 329.43C359.112 329.43 358.862 329.5 358.695 329.64C358.528 329.78 358.445 329.957 358.445 330.17C358.445 330.297 358.482 330.41 358.555 330.51C358.628 330.61 358.768 330.7 358.975 330.78C359.182 330.86 359.488 330.947 359.895 331.04C360.335 331.127 360.682 331.243 360.935 331.39C361.188 331.537 361.368 331.707 361.475 331.9C361.582 332.093 361.635 332.317 361.635 332.57C361.635 332.85 361.552 333.107 361.385 333.34C361.225 333.573 360.985 333.76 360.665 333.9C360.352 334.033 359.962 334.1 359.495 334.1ZM364.733 334.1C364.306 334.1 363.943 334.007 363.643 333.82C363.349 333.627 363.126 333.36 362.973 333.02C362.819 332.68 362.743 332.29 362.743 331.85V329.03C362.743 328.963 362.763 328.91 362.803 328.87C362.849 328.823 362.906 328.8 362.973 328.8H363.473C363.539 328.8 363.593 328.823 363.633 328.87C363.679 328.91 363.703 328.963 363.703 329.03V331.8C363.703 332.793 364.136 333.29 365.003 333.29C365.416 333.29 365.746 333.16 365.993 332.9C366.246 332.633 366.373 332.267 366.373 331.8V329.03C366.373 328.963 366.393 328.91 366.433 328.87C366.479 328.823 366.536 328.8 366.603 328.8H367.093C367.166 328.8 367.223 328.823 367.263 328.87C367.303 328.91 367.323 328.963 367.323 329.03V333.77C367.323 333.837 367.303 333.893 367.263 333.94C367.223 333.98 367.166 334 367.093 334H366.633C366.566 334 366.509 333.98 366.463 333.94C366.423 333.893 366.403 333.837 366.403 333.77V333.33C366.223 333.563 366.003 333.75 365.743 333.89C365.489 334.03 365.153 334.1 364.733 334.1ZM369.048 334C368.982 334 368.925 333.98 368.878 333.94C368.838 333.893 368.818 333.837 368.818 333.77V327.13C368.818 327.063 368.838 327.01 368.878 326.97C368.925 326.923 368.982 326.9 369.048 326.9H369.518C369.592 326.9 369.648 326.923 369.688 326.97C369.728 327.01 369.748 327.063 369.748 327.13V333.77C369.748 333.837 369.728 333.893 369.688 333.94C369.648 333.98 369.592 334 369.518 334H369.048ZM373.27 334C372.897 334 372.593 333.93 372.36 333.79C372.127 333.643 371.957 333.44 371.85 333.18C371.743 332.913 371.69 332.6 371.69 332.24V329.6H370.91C370.843 329.6 370.787 329.58 370.74 329.54C370.7 329.493 370.68 329.437 370.68 329.37V329.03C370.68 328.963 370.7 328.91 370.74 328.87C370.787 328.823 370.843 328.8 370.91 328.8H371.69V327.13C371.69 327.063 371.71 327.01 371.75 326.97C371.797 326.923 371.853 326.9 371.92 326.9H372.39C372.457 326.9 372.51 326.923 372.55 326.97C372.597 327.01 372.62 327.063 372.62 327.13V328.8H373.86C373.927 328.8 373.98 328.823 374.02 328.87C374.067 328.91 374.09 328.963 374.09 329.03V329.37C374.09 329.437 374.067 329.493 374.02 329.54C373.98 329.58 373.927 329.6 373.86 329.6H372.62V332.17C372.62 332.483 372.673 332.73 372.78 332.91C372.887 333.09 373.077 333.18 373.35 333.18H373.96C374.027 333.18 374.08 333.203 374.12 333.25C374.167 333.29 374.19 333.343 374.19 333.41V333.77C374.19 333.837 374.167 333.893 374.12 333.94C374.08 333.98 374.027 334 373.96 334H373.27ZM379.617 334C379.551 334 379.494 333.98 379.447 333.94C379.407 333.893 379.387 333.837 379.387 333.77V328.17L377.727 329.45C377.674 329.49 377.617 329.507 377.557 329.5C377.497 329.493 377.447 329.463 377.407 329.41L377.147 329.08C377.107 329.02 377.091 328.96 377.097 328.9C377.111 328.84 377.144 328.79 377.197 328.75L379.377 327.07C379.424 327.037 379.467 327.017 379.507 327.01C379.547 327.003 379.591 327 379.637 327H380.147C380.214 327 380.267 327.023 380.307 327.07C380.347 327.11 380.367 327.163 380.367 327.23V333.77C380.367 333.837 380.347 333.893 380.307 333.94C380.267 333.98 380.214 334 380.147 334H379.617Z" fill="#72808A"/>
<path fill-rule="evenodd" clip-rule="evenodd" d="M225.429 414.239C225.972 412.604 227.501 411.5 229.225 411.5H280.574C283.303 411.5 285.23 414.171 284.37 416.761L275.071 444.761C274.528 446.396 272.999 447.5 271.275 447.5H219.926C217.197 447.5 215.27 444.829 216.13 442.239L225.429 414.239Z" fill="black"/>
<path d="M242.562 432.5C242.489 432.5 242.432 432.48 242.392 432.44C242.352 432.393 242.332 432.337 242.332 432.27V425.74C242.332 425.667 242.352 425.61 242.392 425.57C242.432 425.523 242.489 425.5 242.562 425.5H246.692C246.765 425.5 246.822 425.523 246.862 425.57C246.902 425.61 246.922 425.667 246.922 425.74V426.12C246.922 426.193 246.902 426.25 246.862 426.29C246.822 426.33 246.765 426.35 246.692 426.35H243.292V428.54H246.472C246.545 428.54 246.602 428.563 246.642 428.61C246.682 428.65 246.702 428.707 246.702 428.78V429.15C246.702 429.217 246.682 429.273 246.642 429.32C246.602 429.36 246.545 429.38 246.472 429.38H243.292V431.65H246.772C246.845 431.65 246.902 431.67 246.942 431.71C246.982 431.75 247.002 431.807 247.002 431.88V432.27C247.002 432.337 246.982 432.393 246.942 432.44C246.902 432.48 246.845 432.5 246.772 432.5H242.562ZM248.496 432.5C248.43 432.5 248.373 432.48 248.326 432.44C248.286 432.393 248.266 432.337 248.266 432.27V427.53C248.266 427.463 248.286 427.41 248.326 427.37C248.373 427.323 248.43 427.3 248.496 427.3H248.966C249.033 427.3 249.086 427.323 249.126 427.37C249.173 427.41 249.196 427.463 249.196 427.53V427.97C249.37 427.743 249.586 427.56 249.846 427.42C250.113 427.273 250.453 427.2 250.866 427.2C251.3 427.2 251.666 427.297 251.966 427.49C252.273 427.677 252.503 427.94 252.656 428.28C252.81 428.613 252.886 429.003 252.886 429.45V432.27C252.886 432.337 252.866 432.393 252.826 432.44C252.786 432.48 252.733 432.5 252.666 432.5H252.166C252.1 432.5 252.043 432.48 251.996 432.44C251.956 432.393 251.936 432.337 251.936 432.27V429.5C251.936 429.033 251.823 428.67 251.596 428.41C251.37 428.143 251.036 428.01 250.596 428.01C250.183 428.01 249.85 428.143 249.596 428.41C249.35 428.67 249.226 429.033 249.226 429.5V432.27C249.226 432.337 249.203 432.393 249.156 432.44C249.116 432.48 249.063 432.5 248.996 432.5H248.496ZM256.231 432.6C255.864 432.6 255.547 432.537 255.281 432.41C255.014 432.277 254.794 432.1 254.621 431.88C254.454 431.653 254.327 431.397 254.241 431.11C254.161 430.823 254.114 430.52 254.101 430.2C254.094 430.093 254.091 429.993 254.091 429.9C254.091 429.807 254.094 429.707 254.101 429.6C254.114 429.287 254.161 428.987 254.241 428.7C254.327 428.413 254.454 428.157 254.621 427.93C254.794 427.703 255.014 427.527 255.281 427.4C255.547 427.267 255.864 427.2 256.231 427.2C256.624 427.2 256.951 427.27 257.211 427.41C257.471 427.55 257.684 427.723 257.851 427.93V425.63C257.851 425.563 257.871 425.51 257.911 425.47C257.957 425.423 258.014 425.4 258.081 425.4H258.561C258.627 425.4 258.681 425.423 258.721 425.47C258.767 425.51 258.791 425.563 258.791 425.63V432.27C258.791 432.337 258.767 432.393 258.721 432.44C258.681 432.48 258.627 432.5 258.561 432.5H258.111C258.037 432.5 257.981 432.48 257.941 432.44C257.901 432.393 257.881 432.337 257.881 432.27V431.85C257.714 432.063 257.497 432.243 257.231 432.39C256.964 432.53 256.631 432.6 256.231 432.6ZM256.441 431.79C256.774 431.79 257.041 431.713 257.241 431.56C257.441 431.407 257.591 431.213 257.691 430.98C257.791 430.74 257.844 430.497 257.851 430.25C257.857 430.143 257.861 430.017 257.861 429.87C257.861 429.717 257.857 429.587 257.851 429.48C257.844 429.247 257.787 429.017 257.681 428.79C257.581 428.563 257.427 428.377 257.221 428.23C257.021 428.083 256.761 428.01 256.441 428.01C256.101 428.01 255.831 428.087 255.631 428.24C255.431 428.387 255.287 428.583 255.201 428.83C255.114 429.07 255.064 429.33 255.051 429.61C255.044 429.803 255.044 429.997 255.051 430.19C255.064 430.47 255.114 430.733 255.201 430.98C255.287 431.22 255.431 431.417 255.631 431.57C255.831 431.717 256.101 431.79 256.441 431.79Z" fill="#72808A"/>
<path fill-rule="evenodd" clip-rule="evenodd" d="M250.5 89.9445V121.056H249.5V89.9445H250.5V89.9445Z" fill="#1C1C1C"/>
<path fill-rule="evenodd" clip-rule="evenodd" d="M249.606 123.711C249.974 124.448 251.026 124.448 251.394 123.711L256.776 112.947C257.109 112.282 256.625 111.5 255.882 111.5H245.118C244.375 111.5 243.891 112.282 244.224 112.947L249.606 123.711Z" fill="#1C1C1C"/>
<path fill-rule="evenodd" clip-rule="evenodd" d="M250.5 99.5C254.366 99.5 257.5 96.366 257.5 92.5C257.5 88.634 254.366 85.5 250.5 85.5C246.634 85.5 243.5 88.634 243.5 92.5C243.5 96.366 246.634 99.5 250.5 99.5Z" fill="#1C1C1C"/>
<path fill-rule="evenodd" clip-rule="evenodd" d="M250.5 175.944V207.056H249.5V175.944H250.5V175.944Z" fill="#1C1C1C"/>
<path fill-rule="evenodd" clip-rule="evenodd" d="M249.606 209.711C249.974 210.448 251.026 210.448 251.394 209.711L256.776 198.947C257.109 198.282 256.625 197.5 255.882 197.5H245.118C244.375 197.5 243.891 198.282 244.224 198.947L249.606 209.711Z" fill="#1C1C1C"/>
<path fill-rule="evenodd" clip-rule="evenodd" d="M250.5 185.5C254.366 185.5 257.5 182.366 257.5 178.5C257.5 174.634 254.366 171.5 250.5 171.5C246.634 171.5 243.5 174.634 243.5 178.5C243.5 182.366 246.634 185.5 250.5 185.5Z" fill="#1C1C1C"/>
<path fill-rule="evenodd" clip-rule="evenodd" d="M250.5 282.944V314.056H249.5V282.944H250.5V282.944Z" fill="#1C1C1C"/>
<path fill-rule="evenodd" clip-rule="evenodd" d="M249.606 316.711C249.974 317.448 251.026 317.448 251.394 316.711L256.776 305.947C257.109 305.282 256.625 304.5 255.882 304.5H245.118C244.375 304.5 243.891 305.282 244.224 305.947L249.606 316.711Z" fill="#1C1C1C"/>
<path fill-rule="evenodd" clip-rule="evenodd" d="M250.5 292.5C254.366 292.5 257.5 289.366 257.5 285.5C257.5 281.634 254.366 278.5 250.5 278.5C246.634 278.5 243.5 281.634 243.5 285.5C243.5 289.366 246.634 292.5 250.5 292.5Z" fill="#1C1C1C"/>
<path fill-rule="evenodd" clip-rule="evenodd" d="M250.5 370.944V402.056H249.5V370.944H250.5V370.944Z" fill="#1C1C1C"/>
<path fill-rule="evenodd" clip-rule="evenodd" d="M249.606 404.711C249.974 405.448 251.026 405.448 251.394 404.711L256.776 393.947C257.109 393.282 256.625 392.5 255.882 392.5H245.118C244.375 392.5 243.891 393.282 244.224 393.947L249.606 404.711Z" fill="#1C1C1C"/>
<path fill-rule="evenodd" clip-rule="evenodd" d="M250.5 380.5C254.366 380.5 257.5 377.366 257.5 373.5C257.5 369.634 254.366 366.5 250.5 366.5C246.634 366.5 243.5 369.634 243.5 373.5C243.5 377.366 246.634 380.5 250.5 380.5Z" fill="#1C1C1C"/>
<path fill-rule="evenodd" clip-rule="evenodd" d="M364 272.444V303.556H363V272.444H364V272.444Z" fill="#1C1C1C"/>
<path fill-rule="evenodd" clip-rule="evenodd" d="M363.106 306.211C363.474 306.948 364.526 306.948 364.894 306.211L370.276 295.447C370.609 294.782 370.125 294 369.382 294H358.618C357.875 294 357.391 294.782 357.724 295.447L363.106 306.211Z" fill="#1C1C1C"/>
<path fill-rule="evenodd" clip-rule="evenodd" d="M364 282C367.866 282 371 278.866 371 275C371 271.134 367.866 268 364 268C360.134 268 357 271.134 357 275C357 278.866 360.134 282 364 282Z" fill="#1C1C1C"/>
<path fill-rule="evenodd" clip-rule="evenodd" d="M137 272.444V303.556H136V272.444H137V272.444Z" fill="#1C1C1C"/>
<path fill-rule="evenodd" clip-rule="evenodd" d="M136.106 306.211C136.474 306.948 137.526 306.948 137.894 306.211L143.276 295.447C143.609 294.782 143.125 294 142.382 294H131.618C130.875 294 130.391 294.782 130.724 295.447L136.106 306.211Z" fill="#1C1C1C"/>
<path fill-rule="evenodd" clip-rule="evenodd" d="M137 282C140.866 282 144 278.866 144 275C144 271.134 140.866 268 137 268C133.134 268 130 271.134 130 275C130 278.866 133.134 282 137 282Z" fill="#1C1C1C"/>
<path fill-rule="evenodd" clip-rule="evenodd" d="M212.056 245.5H180.944V244.5H212.056V245.5V245.5Z" fill="#1C1C1C"/>
<path fill-rule="evenodd" clip-rule="evenodd" d="M202.5 245.5C202.5 249.366 205.634 252.5 209.5 252.5C213.366 252.5 216.5 249.366 216.5 245.5C216.5 241.634 213.366 238.5 209.5 238.5C205.634 238.5 202.5 241.634 202.5 245.5Z" fill="#1C1C1C"/>
<path fill-rule="evenodd" clip-rule="evenodd" d="M178.289 246.394C177.552 246.026 177.552 244.974 178.289 244.606L189.053 239.224C189.718 238.891 190.5 239.375 190.5 240.118V250.882C190.5 251.625 189.718 252.109 189.053 251.776L178.289 246.394Z" fill="#1C1C1C"/>
<path fill-rule="evenodd" clip-rule="evenodd" d="M319.056 245.5H287.944V244.5H319.056V245.5V245.5Z" fill="#1C1C1C"/>
<path fill-rule="evenodd" clip-rule="evenodd" d="M321.711 244.606C322.448 244.974 322.448 246.026 321.711 246.394L310.947 251.776C310.282 252.109 309.5 251.625 309.5 250.882V240.118C309.5 239.375 310.282 238.891 310.947 239.224L321.711 244.606Z" fill="#1C1C1C"/>
<path fill-rule="evenodd" clip-rule="evenodd" d="M297.5 245.5C297.5 241.634 294.366 238.5 290.5 238.5C286.634 238.5 283.5 241.634 283.5 245.5C283.5 249.366 286.634 252.5 290.5 252.5C294.366 252.5 297.5 249.366 297.5 245.5Z" fill="#1C1C1C"/>
<g clip-path="url(#clip0_0_2)">
<path fill-rule="evenodd" clip-rule="evenodd" d="M250 361.5C260.493 361.5 269 352.993 269 342.5C269 332.007 260.493 323.5 250 323.5C239.507 323.5 231 332.007 231 342.5C231 352.993 239.507 361.5 250 361.5Z" fill="black"/>
</g>
<path d="M236.833 345.08C236.38 345.08 235.99 345.003 235.665 344.848C235.34 344.688 235.089 344.445 234.913 344.12C234.737 343.789 234.638 343.376 234.617 342.88C234.612 342.645 234.609 342.421 234.609 342.208C234.609 341.989 234.612 341.763 234.617 341.528C234.638 341.037 234.74 340.629 234.921 340.304C235.108 339.973 235.364 339.728 235.689 339.568C236.02 339.403 236.401 339.32 236.833 339.32C237.27 339.32 237.652 339.403 237.977 339.568C238.308 339.728 238.566 339.973 238.753 340.304C238.94 340.629 239.041 341.037 239.057 341.528C239.068 341.763 239.073 341.989 239.073 342.208C239.073 342.421 239.068 342.645 239.057 342.88C239.041 343.376 238.942 343.789 238.761 344.12C238.585 344.445 238.334 344.688 238.009 344.848C237.684 345.003 237.292 345.08 236.833 345.08ZM236.833 344.4C237.244 344.4 237.577 344.277 237.833 344.032C238.094 343.787 238.236 343.389 238.257 342.84C238.268 342.6 238.273 342.387 238.273 342.2C238.273 342.008 238.268 341.795 238.257 341.56C238.246 341.192 238.177 340.893 238.049 340.664C237.926 340.435 237.761 340.267 237.553 340.16C237.345 340.053 237.105 340 236.833 340C236.572 340 236.337 340.053 236.129 340.16C235.921 340.267 235.753 340.435 235.625 340.664C235.502 340.893 235.433 341.192 235.417 341.56C235.412 341.795 235.409 342.008 235.409 342.2C235.409 342.387 235.412 342.6 235.417 342.84C235.438 343.389 235.58 343.787 235.841 344.032C236.102 344.277 236.433 344.4 236.833 344.4ZM240.319 345C240.266 345 240.22 344.984 240.183 344.952C240.151 344.915 240.135 344.869 240.135 344.816V341.024C240.135 340.971 240.151 340.928 240.183 340.896C240.22 340.859 240.266 340.84 240.319 340.84H240.695C240.748 340.84 240.791 340.859 240.823 340.896C240.86 340.928 240.879 340.971 240.879 341.024V341.376C241.018 341.195 241.191 341.048 241.399 340.936C241.612 340.819 241.884 340.76 242.215 340.76C242.562 340.76 242.855 340.837 243.095 340.992C243.34 341.141 243.524 341.352 243.647 341.624C243.77 341.891 243.831 342.203 243.831 342.56V344.816C243.831 344.869 243.815 344.915 243.783 344.952C243.751 344.984 243.708 345 243.655 345H243.255C243.202 345 243.156 344.984 243.119 344.952C243.087 344.915 243.071 344.869 243.071 344.816V342.6C243.071 342.227 242.98 341.936 242.799 341.728C242.618 341.515 242.351 341.408 241.999 341.408C241.668 341.408 241.402 341.515 241.199 341.728C241.002 341.936 240.903 342.227 240.903 342.6V344.816C240.903 344.869 240.884 344.915 240.847 344.952C240.815 344.984 240.772 345 240.719 345H240.319ZM247.043 345.08C246.723 345.08 246.456 345.024 246.243 344.912C246.029 344.795 245.859 344.651 245.731 344.48V344.816C245.731 344.869 245.712 344.915 245.675 344.952C245.643 344.984 245.6 345 245.547 345H245.179C245.125 345 245.08 344.984 245.043 344.952C245.011 344.915 244.995 344.869 244.995 344.816V339.504C244.995 339.451 245.011 339.408 245.043 339.376C245.08 339.339 245.125 339.32 245.179 339.32H245.563C245.621 339.32 245.667 339.339 245.699 339.376C245.731 339.408 245.747 339.451 245.747 339.504V341.344C245.88 341.179 246.051 341.04 246.259 340.928C246.472 340.816 246.733 340.76 247.043 340.76C247.341 340.76 247.595 340.813 247.803 340.92C248.016 341.021 248.189 341.163 248.323 341.344C248.461 341.525 248.565 341.731 248.635 341.96C248.704 342.189 248.741 342.429 248.747 342.68C248.752 342.765 248.755 342.845 248.755 342.92C248.755 342.995 248.752 343.075 248.747 343.16C248.741 343.416 248.704 343.659 248.635 343.888C248.565 344.117 248.461 344.323 248.323 344.504C248.189 344.68 248.016 344.821 247.803 344.928C247.595 345.029 247.341 345.08 247.043 345.08ZM246.875 344.432C247.152 344.432 247.368 344.373 247.523 344.256C247.683 344.133 247.797 343.976 247.867 343.784C247.936 343.587 247.976 343.376 247.987 343.152C247.992 342.997 247.992 342.843 247.987 342.688C247.976 342.464 247.936 342.256 247.867 342.064C247.797 341.867 247.683 341.709 247.523 341.592C247.368 341.469 247.152 341.408 246.875 341.408C246.624 341.408 246.416 341.467 246.251 341.584C246.085 341.701 245.96 341.851 245.875 342.032C245.795 342.213 245.752 342.397 245.747 342.584C245.741 342.669 245.739 342.773 245.739 342.896C245.739 343.013 245.741 343.115 245.747 343.2C245.757 343.397 245.8 343.592 245.875 343.784C245.955 343.971 246.075 344.125 246.235 344.248C246.4 344.371 246.613 344.432 246.875 344.432ZM251.448 345.08C251.043 345.08 250.704 345.003 250.432 344.848C250.16 344.693 249.952 344.48 249.808 344.208C249.664 343.931 249.584 343.616 249.568 343.264C249.563 343.173 249.56 343.059 249.56 342.92C249.56 342.776 249.563 342.661 249.568 342.576C249.584 342.219 249.664 341.904 249.808 341.632C249.958 341.36 250.168 341.147 250.44 340.992C250.712 340.837 251.048 340.76 251.448 340.76C251.848 340.76 252.184 340.837 252.456 340.992C252.728 341.147 252.936 341.36 253.08 341.632C253.23 341.904 253.312 342.219 253.328 342.576C253.334 342.661 253.336 342.776 253.336 342.92C253.336 343.059 253.334 343.173 253.328 343.264C253.312 343.616 253.232 343.931 253.088 344.208C252.944 344.48 252.736 344.693 252.464 344.848C252.192 345.003 251.854 345.08 251.448 345.08ZM251.448 344.464C251.779 344.464 252.043 344.36 252.24 344.152C252.438 343.939 252.544 343.629 252.56 343.224C252.566 343.144 252.568 343.043 252.568 342.92C252.568 342.797 252.566 342.696 252.56 342.616C252.544 342.211 252.438 341.904 252.24 341.696C252.043 341.483 251.779 341.376 251.448 341.376C251.118 341.376 250.851 341.483 250.648 341.696C250.451 341.904 250.347 342.211 250.336 342.616C250.331 342.696 250.328 342.797 250.328 342.92C250.328 343.043 250.331 343.144 250.336 343.224C250.347 343.629 250.451 343.939 250.648 344.152C250.851 344.36 251.118 344.464 251.448 344.464ZM255.498 345.08C255.231 345.08 254.989 345.027 254.77 344.92C254.551 344.813 254.375 344.669 254.242 344.488C254.109 344.307 254.042 344.101 254.042 343.872C254.042 343.504 254.191 343.211 254.49 342.992C254.789 342.773 255.178 342.629 255.658 342.56L256.85 342.392V342.16C256.85 341.904 256.775 341.704 256.626 341.56C256.482 341.416 256.245 341.344 255.914 341.344C255.674 341.344 255.479 341.392 255.33 341.488C255.186 341.584 255.085 341.707 255.026 341.856C254.994 341.936 254.938 341.976 254.858 341.976H254.498C254.439 341.976 254.394 341.96 254.362 341.928C254.335 341.891 254.322 341.848 254.322 341.8C254.322 341.72 254.351 341.621 254.41 341.504C254.474 341.387 254.57 341.272 254.698 341.16C254.826 341.048 254.989 340.955 255.186 340.88C255.389 340.8 255.634 340.76 255.922 340.76C256.242 340.76 256.511 340.803 256.73 340.888C256.949 340.968 257.119 341.077 257.242 341.216C257.37 341.355 257.461 341.512 257.514 341.688C257.573 341.864 257.602 342.043 257.602 342.224V344.816C257.602 344.869 257.583 344.915 257.546 344.952C257.514 344.984 257.471 345 257.418 345H257.05C256.991 345 256.946 344.984 256.914 344.952C256.882 344.915 256.866 344.869 256.866 344.816V344.472C256.797 344.568 256.703 344.664 256.586 344.76C256.469 344.851 256.322 344.928 256.146 344.992C255.97 345.051 255.754 345.08 255.498 345.08ZM255.666 344.48C255.885 344.48 256.085 344.435 256.266 344.344C256.447 344.248 256.589 344.101 256.69 343.904C256.797 343.707 256.85 343.459 256.85 343.16V342.936L255.922 343.072C255.543 343.125 255.258 343.216 255.066 343.344C254.874 343.467 254.778 343.624 254.778 343.816C254.778 343.965 254.821 344.091 254.906 344.192C254.997 344.288 255.109 344.36 255.242 344.408C255.381 344.456 255.522 344.48 255.666 344.48ZM258.936 345C258.883 345 258.837 344.984 258.8 344.952C258.768 344.915 258.752 344.869 258.752 344.816V341.032C258.752 340.979 258.768 340.933 258.8 340.896C258.837 340.859 258.883 340.84 258.936 340.84H259.304C259.357 340.84 259.403 340.859 259.44 340.896C259.477 340.933 259.496 340.979 259.496 341.032V341.384C259.603 341.203 259.749 341.067 259.936 340.976C260.123 340.885 260.347 340.84 260.608 340.84H260.928C260.981 340.84 261.024 340.859 261.056 340.896C261.088 340.928 261.104 340.971 261.104 341.024V341.352C261.104 341.405 261.088 341.448 261.056 341.48C261.024 341.512 260.981 341.528 260.928 341.528H260.448C260.16 341.528 259.933 341.613 259.768 341.784C259.603 341.949 259.52 342.176 259.52 342.464V344.816C259.52 344.869 259.501 344.915 259.464 344.952C259.427 344.984 259.381 345 259.328 345H258.936ZM263.225 345.08C262.932 345.08 262.679 345.029 262.465 344.928C262.252 344.821 262.076 344.68 261.937 344.504C261.804 344.323 261.703 344.117 261.633 343.888C261.569 343.659 261.532 343.416 261.521 343.16C261.516 343.075 261.513 342.995 261.513 342.92C261.513 342.845 261.516 342.765 261.521 342.68C261.532 342.429 261.569 342.189 261.633 341.96C261.703 341.731 261.804 341.525 261.937 341.344C262.076 341.163 262.252 341.021 262.465 340.92C262.679 340.813 262.932 340.76 263.225 340.76C263.54 340.76 263.801 340.816 264.009 340.928C264.217 341.04 264.388 341.179 264.521 341.344V339.504C264.521 339.451 264.537 339.408 264.569 339.376C264.607 339.339 264.652 339.32 264.705 339.32H265.089C265.143 339.32 265.185 339.339 265.217 339.376C265.255 339.408 265.273 339.451 265.273 339.504V344.816C265.273 344.869 265.255 344.915 265.217 344.952C265.185 344.984 265.143 345 265.089 345H264.729C264.671 345 264.625 344.984 264.593 344.952C264.561 344.915 264.545 344.869 264.545 344.816V344.48C264.412 344.651 264.239 344.795 264.025 344.912C263.812 345.024 263.545 345.08 263.225 345.08ZM263.393 344.432C263.66 344.432 263.873 344.371 264.033 344.248C264.193 344.125 264.313 343.971 264.393 343.784C264.473 343.592 264.516 343.397 264.521 343.2C264.527 343.115 264.529 343.013 264.529 342.896C264.529 342.773 264.527 342.669 264.521 342.584C264.516 342.397 264.471 342.213 264.385 342.032C264.305 341.851 264.183 341.701 264.017 341.584C263.857 341.467 263.649 341.408 263.393 341.408C263.121 341.408 262.905 341.469 262.745 341.592C262.585 341.709 262.471 341.867 262.401 342.064C262.332 342.256 262.292 342.464 262.281 342.688C262.276 342.843 262.276 342.997 262.281 343.152C262.292 343.376 262.332 343.587 262.401 343.784C262.471 343.976 262.585 344.133 262.745 344.256C262.905 344.373 263.121 344.432 263.393 344.432Z" fill="#72808A"/>
<defs>
<clipPath id="clip0_0_2">
<rect width="38" height="38" fill="white" transform="translate(231 323.5)"/>
</clipPath>
</defs>
</svg>
